<?xml version="1.0" encoding="UTF-8"?>
<svg version="1.1" xmlns="http://www.w3.org/2000/svg" width="226" height="198">
<path d="M0 0 C74.58 0 149.16 0 226 0 C226 65.34 226 130.68 226 198 C151.42 198 76.84 198 0 198 C0 132.66 0 67.32 0 0 Z " fill="#A5C2BF" transform="translate(0,0)"/>
<path d="M0 0 C2.46018982 -0.38095093 2.46018982 -0.38095093 5.59545898 -0.38818359 C7.35254433 -0.40236832 7.35254433 -0.40236832 9.14512634 -0.4168396 C10.41594559 -0.41076691 11.68676483 -0.40469421 12.99609375 -0.3984375 C14.29571548 -0.40130768 15.59533722 -0.40417786 16.93434143 -0.40713501 C19.68753734 -0.41156148 22.44044149 -0.40511846 25.19360352 -0.39111328 C28.7224045 -0.37403745 32.2505202 -0.3838495 35.77929592 -0.40183067 C39.14328338 -0.4152825 42.50708682 -0.40586135 45.87109375 -0.3984375 C47.13988876 -0.40451019 48.40868378 -0.41058289 49.71592712 -0.4168396 C50.89046951 -0.40738312 52.0650119 -0.39792664 53.27514648 -0.38818359 C54.3105809 -0.38579681 55.34601532 -0.38341003 56.41282654 -0.38095093 C59 0 59 0 60.85267639 1.31185913 C62.78240142 4.15120425 62.0384982 7.04070777 61.8125 10.375 C61.53338396 15.39161452 61.53338396 15.39161452 63.18359375 20.02734375 C64.92214672 21.54401234 64.92214672 21.54401234 68 23 C69.175625 23.6496875 69.175625 23.6496875 70.375 24.3125 C70.91125 24.539375 71.4475 24.76625 72 25 C72.103125 24.4225 72.20625 23.845 72.3125 23.25 C73.09792798 20.67950842 74.30504197 19.06342716 76 17 C77.65 17.33 79.3 17.66 81 18 C82.18757342 26.56749393 83.2066179 35.09210185 83.3125 43.75 C83.32925781 45.02359375 83.34601563 46.2971875 83.36328125 47.609375 C82.97441109 51.23882986 82.19457089 53.11662219 80 56 C79.01 56.495 79.01 56.495 78 57 C77.34 58.65 76.68 60.3 76 62 C72.37 62.66 68.74 63.32 65 64 C65 73.24 65 82.48 65 92 C66.32 92 67.64 92 69 92 C69.12761719 91.42378906 69.25523438 90.84757812 69.38671875 90.25390625 C70.60906333 85.76159527 72.56651434 81.43348566 75.875 78.125 C83.08782664 74.30644472 91.1863102 73.74600786 99.0625 75.9375 C102 77 102 77 104 78 C104.5 81.125 104.5 81.125 104 85 C101.65811004 87.52830906 98.96724502 89.27324203 96 91 C95.1440625 91.54785156 94.288125 92.09570312 93.40625 92.66015625 C88.60256315 94.54967986 84.23271536 94.32245996 79.125 94.1875 C78.15046875 94.17396484 77.1759375 94.16042969 76.171875 94.14648438 C73.78067137 94.11131962 71.39063025 94.0621067 69 94 C67.96025501 97.41065139 67.88491494 100.52264842 67.90234375 104.078125 C67.90484131 105.12387695 67.90733887 106.16962891 67.90991211 107.24707031 C67.91901611 108.56803711 67.92812012 109.88900391 67.9375 111.25 C67.958125 115.4575 67.97875 119.665 68 124 C81.2 124 94.4 124 108 124 C108 125.65 108 127.3 108 129 C80.32864393 130.22093945 52.70275096 131.41314186 25 131 C25 129.35 25 127.7 25 126 C37.87 126 50.74 126 64 126 C64 123.36 64 120.72 64 118 C62.865625 118.103125 61.73125 118.20625 60.5625 118.3125 C53.89550821 118.3125 48.90427649 114.73868723 44.125 110.375 C43.42375 109.59125 42.7225 108.8075 42 108 C41.46375 107.54625 40.9275 107.0925 40.375 106.625 C38.14885262 103.99409855 37.11613061 101.23677877 36 98 C36.33 96.35 36.66 94.7 37 93 C40.96 93 44.92 93 49 93 C48.67 93.66 48.34 94.32 48 95 C45.69 95 43.38 95 41 95 C42.26723343 99.54091981 43.99903136 102.39883763 47 106 C47 106.66 47 107.32 47 108 C47.61875 108.28875 48.2375 108.5775 48.875 108.875 C51 110 51 110 53 112 C55.32275177 112.40047444 57.65739357 112.7397104 60 113 C60.04898438 112.14535156 60.09796875 111.29070312 60.1484375 110.41015625 C60.22320312 109.30542969 60.29796875 108.20070313 60.375 107.0625 C60.44460937 105.96035156 60.51421875 104.85820312 60.5859375 103.72265625 C60.79089844 102.37494141 60.79089844 102.37494141 61 101 C61.66 100.67 62.32 100.34 63 100 C62.93941406 99.38898438 62.87882812 98.77796875 62.81640625 98.1484375 C61.83723408 87.45286452 61.4453525 76.72855603 61 66 C60.23300781 66.02835937 59.46601562 66.05671875 58.67578125 66.0859375 C55.33888217 65.97876702 53.653945 64.971502 51 63 C51 62.34 51 61.68 51 61 C50.21625 60.7525 49.4325 60.505 48.625 60.25 C45.67682892 58.84610901 45.0975223 57.99324263 44 55 C43.34 55 42.68 55 42 55 C42 54.34 42 53.68 42 53 C41.34 53 40.68 53 40 53 C39.67 53.99 39.34 54.98 39 56 C29.13209188 56.57146107 19.2596929 57.10322434 9.375 57.25 C8.65965088 57.27126953 7.94430176 57.29253906 7.20727539 57.31445312 C5.2109375 57.328125 5.2109375 57.328125 2 57 C-0.37036438 53.44445342 -0.6961944 50.4523269 -1.125 46.3125 C-1.2084668 45.51392578 -1.29193359 44.71535156 -1.37792969 43.89257812 C-2.15475203 35.27460619 -2.22075627 26.64587233 -2.25 18 C-2.25517639 17.28083405 -2.26035278 16.56166809 -2.26568604 15.82070923 C-2.27740993 13.75527139 -2.27422592 11.69044278 -2.265625 9.625 C-2.26336914 8.42101562 -2.26111328 7.21703125 -2.25878906 5.9765625 C-2 3 -2 3 0 0 Z " fill="#A9C2BF" transform="translate(51,30)"/>
<path d="M0 0 C1.32 0 2.64 0 4 0 C5.5625 2.3125 5.5625 2.3125 7 5 C8.20918882 6.87640419 8.20918882 6.87640419 10 8 C13.12549017 8.25048636 13.12549017 8.25048636 16 8 C16 10.64 16 13.28 16 16 C18.64 16.33 21.28 16.66 24 17 C26.29633824 13.55549263 26.54016485 11.06187717 27 7 C28.65 6.67 30.3 6.34 32 6 C32.33 5.01 32.66 4.02 33 3 C33.66 3 34.32 3 35 3 C35 2.01 35 1.02 35 0 C37.475 0.495 37.475 0.495 40 1 C40.61326035 10.3412692 41.1820896 19.63250185 41 29 C40.01 29.33 39.02 29.66 38 30 C37.16788724 24.96145894 36.8921466 20.1874338 36.9375 15.0625 C36.94201172 14.37865234 36.94652344 13.69480469 36.95117188 12.99023438 C36.9628044 11.32678396 36.98073306 9.6633795 37 8 C35.68 8 34.36 8 33 8 C32.855625 8.61875 32.71125 9.2375 32.5625 9.875 C32 12 32 12 31 14 C30.34 14 29.68 14 29 14 C29 15.32 29 16.64 29 18 C26.8125 20.8125 26.8125 20.8125 24 23 C20.42917202 22.91498029 19.00620093 22.00413395 16 20 C16 19.34 16 18.68 16 18 C15.443125 17.79375 14.88625 17.5875 14.3125 17.375 C11.15357507 15.49672031 9.33295673 12.81151195 7 10 C6.01 9.67 5.02 9.34 4 9 C4.4481179 12.23066964 4.91030025 15.4591772 5.375 18.6875 C5.56449219 20.05551758 5.56449219 20.05551758 5.7578125 21.45117188 C6.51738203 29.22959347 6.51738203 29.22959347 10.7265625 35.36328125 C11.35304688 35.67652344 11.97953125 35.98976562 12.625 36.3125 C13.73875 36.869375 14.8525 37.42625 16 38 C16 38.66 16 39.32 16 40 C17.89666526 39.91227545 19.79238993 39.80408699 21.6875 39.6875 C22.74324219 39.62949219 23.79898438 39.57148437 24.88671875 39.51171875 C29.58611384 38.73929622 32.76496027 36.36503419 36.3125 33.3125 C37.199375 32.549375 38.08625 31.78625 39 31 C38.69078116 32.45903258 38.37751201 33.91720722 38.0625 35.375 C37.88847656 36.18710938 37.71445313 36.99921875 37.53515625 37.8359375 C37 40 37 40 36 42 C32.37 42.66 28.74 43.32 25 44 C25 53.24 25 62.48 25 72 C26.32 72 27.64 72 29 72 C29.12761719 71.42378906 29.25523438 70.84757812 29.38671875 70.25390625 C30.60906333 65.76159527 32.56651434 61.43348566 35.875 58.125 C43.08782664 54.30644472 51.1863102 53.74600786 59.0625 55.9375 C62 57 62 57 64 58 C64.5 61.125 64.5 61.125 64 65 C61.65811004 67.52830906 58.96724502 69.27324203 56 71 C55.1440625 71.54785156 54.288125 72.09570312 53.40625 72.66015625 C48.60256315 74.54967986 44.23271536 74.32245996 39.125 74.1875 C38.15046875 74.17396484 37.1759375 74.16042969 36.171875 74.14648438 C33.78067137 74.11131962 31.39063025 74.0621067 29 74 C27.96025501 77.41065139 27.88491494 80.52264842 27.90234375 84.078125 C27.90484131 85.12387695 27.90733887 86.16962891 27.90991211 87.24707031 C27.91901611 88.56803711 27.92812012 89.88900391 27.9375 91.25 C27.958125 95.4575 27.97875 99.665 28 104 C41.2 104 54.4 104 68 104 C68 105.65 68 107.3 68 109 C40.32864393 110.22093945 12.70275096 111.41314186 -15 111 C-15 109.35 -15 107.7 -15 106 C-2.13 106 10.74 106 24 106 C24 103.36 24 100.72 24 98 C22.865625 98.103125 21.73125 98.20625 20.5625 98.3125 C13.89550821 98.3125 8.90427649 94.73868723 4.125 90.375 C3.42375 89.59125 2.7225 88.8075 2 88 C1.195625 87.319375 1.195625 87.319375 0.375 86.625 C-1.85114738 83.99409855 -2.88386939 81.23677877 -4 78 C-3.67 76.35 -3.34 74.7 -3 73 C0.96 73 4.92 73 9 73 C8.67 73.66 8.34 74.32 8 75 C5.69 75 3.38 75 1 75 C2.26723343 79.54091981 3.99903136 82.39883763 7 86 C7 86.66 7 87.32 7 88 C7.61875 88.28875 8.2375 88.5775 8.875 88.875 C11 90 11 90 13 92 C15.32275177 92.40047444 17.65739357 92.7397104 20 93 C20.04898438 92.14535156 20.09796875 91.29070312 20.1484375 90.41015625 C20.22320312 89.30542969 20.29796875 88.20070313 20.375 87.0625 C20.44460937 85.96035156 20.51421875 84.85820312 20.5859375 83.72265625 C20.79089844 82.37494141 20.79089844 82.37494141 21 81 C21.66 80.67 22.32 80.34 23 80 C22.93941406 79.38898438 22.87882812 78.77796875 22.81640625 78.1484375 C21.83723408 67.45286452 21.4453525 56.72855603 21 46 C20.23300781 46.02835938 19.46601562 46.05671875 18.67578125 46.0859375 C15.33888217 45.97876702 13.653945 44.971502 11 43 C11 42.34 11 41.68 11 41 C10.21625 40.7525 9.4325 40.505 8.625 40.25 C5.67682892 38.84610901 5.0975223 37.99324263 4 35 C3.34 35 2.68 35 2 35 C-0.45913482 23.36302275 -0.20714199 11.83418115 0 0 Z " fill="#908281" transform="translate(91,50)"/>
<path d="M0 0 C2.46018982 -0.38095093 2.46018982 -0.38095093 5.59545898 -0.38818359 C7.35254433 -0.40236832 7.35254433 -0.40236832 9.14512634 -0.4168396 C10.41594559 -0.41076691 11.68676483 -0.40469421 12.99609375 -0.3984375 C14.29571548 -0.40130768 15.59533722 -0.40417786 16.93434143 -0.40713501 C19.68753734 -0.41156148 22.44044149 -0.40511846 25.19360352 -0.39111328 C28.7224045 -0.37403745 32.2505202 -0.3838495 35.77929592 -0.40183067 C39.14328338 -0.4152825 42.50708682 -0.40586135 45.87109375 -0.3984375 C47.13988876 -0.40451019 48.40868378 -0.41058289 49.71592712 -0.4168396 C50.89046951 -0.40738312 52.0650119 -0.39792664 53.27514648 -0.38818359 C54.3105809 -0.38579681 55.34601532 -0.38341003 56.41282654 -0.38095093 C59 0 59 0 60.85047913 1.31185913 C63.29639966 4.90384124 61.88746133 10.18354871 61.6171875 14.3359375 C62.09677316 18.92625743 63.67855307 19.97009073 67 23 C67 24.32 67 25.64 67 27 C65.01432292 26.70703125 63.02864583 26.4140625 61.04296875 26.12109375 C58.7974658 25.86095201 58.7974658 25.86095201 56 27 C56.33 24.69 56.66 22.38 57 20 C57.66 20 58.32 20 59 20 C57.91215032 16.75016865 57.91215032 16.75016865 56 14 C56 10.7 56 7.4 56 4 C38.51 4 21.02 4 3 4 C3.98387757 16.47488136 3.98387757 16.47488136 4.97460938 28.94921875 C5.09790183 30.52862668 5.22096374 32.10805264 5.34375 33.6875 C5.40852539 34.48865234 5.47330078 35.28980469 5.54003906 36.11523438 C5.60094727 36.90607422 5.66185547 37.69691406 5.72460938 38.51171875 C5.77790405 39.18678467 5.83119873 39.86185059 5.8861084 40.55737305 C6.0482436 44.03467786 6 47.51891733 6 51 C16.56 51 27.12 51 38 51 C38 52.65 38 54.3 38 56 C28.48630781 56.58481533 18.96950004 57.10895419 9.4375 57.25 C8.35867554 57.2819043 8.35867554 57.2819043 7.25805664 57.31445312 C5.24609375 57.328125 5.24609375 57.328125 2 57 C-0.37036438 53.44445342 -0.6961944 50.4523269 -1.125 46.3125 C-1.2084668 45.51392578 -1.29193359 44.71535156 -1.37792969 43.89257812 C-2.15475203 35.27460619 -2.22075627 26.64587233 -2.25 18 C-2.25517639 17.28083405 -2.26035278 16.56166809 -2.26568604 15.82070923 C-2.27740993 13.75527139 -2.27422592 11.69044278 -2.265625 9.625 C-2.26336914 8.42101562 -2.26111328 7.21703125 -2.25878906 5.9765625 C-2 3 -2 3 0 0 Z " fill="#698687" transform="translate(51,30)"/>
<path d="M0 0 C0.5 3.125 0.5 3.125 0 7 C-2.34188996 9.52830906 -5.03275498 11.27324203 -8 13 C-8.8559375 13.54785156 -9.711875 14.09570312 -10.59375 14.66015625 C-15.39743685 16.54967986 -19.76728464 16.32245996 -24.875 16.1875 C-25.84953125 16.17396484 -26.8240625 16.16042969 -27.828125 16.14648438 C-30.21932863 16.11131962 -32.60936975 16.0621067 -35 16 C-35.33 17.32 -35.66 18.64 -36 20 C-36.144375 19.38125 -36.28875 18.7625 -36.4375 18.125 C-36.93152225 15.96741678 -36.93152225 15.96741678 -38 14 C-37.01 14 -36.02 14 -35 14 C-34.87238281 13.42378906 -34.74476562 12.84757812 -34.61328125 12.25390625 C-33.39093667 7.76159527 -31.43348566 3.43348566 -28.125 0.125 C-19.35514891 -4.51786234 -8.88672439 -4.44336219 0 0 Z " fill="#928C8A" transform="translate(155,108)"/>
<path d="M0 0 C1.32 0 2.64 0 4 0 C5.5625 2.3125 5.5625 2.3125 7 5 C8.20918882 6.87640419 8.20918882 6.87640419 10 8 C13.12549017 8.25048636 13.12549017 8.25048636 16 8 C16 10.64 16 13.28 16 16 C18.64 16.33 21.28 16.66 24 17 C26.29633824 13.55549263 26.54016485 11.06187717 27 7 C28.65 6.67 30.3 6.34 32 6 C32.33 5.01 32.66 4.02 33 3 C33.66 3 34.32 3 35 3 C35 2.01 35 1.02 35 0 C37.475 0.495 37.475 0.495 40 1 C40.61326035 10.3412692 41.1820896 19.63250185 41 29 C40.01 29.33 39.02 29.66 38 30 C37.16788724 24.96145894 36.8921466 20.1874338 36.9375 15.0625 C36.94201172 14.37865234 36.94652344 13.69480469 36.95117188 12.99023438 C36.9628044 11.32678396 36.98073306 9.6633795 37 8 C35.68 8 34.36 8 33 8 C32.855625 8.61875 32.71125 9.2375 32.5625 9.875 C32 12 32 12 31 14 C30.34 14 29.68 14 29 14 C29 15.32 29 16.64 29 18 C26.8125 20.8125 26.8125 20.8125 24 23 C20.42917202 22.91498029 19.00620093 22.00413395 16 20 C16 19.34 16 18.68 16 18 C15.1646875 17.690625 15.1646875 17.690625 14.3125 17.375 C11.15357507 15.49672031 9.33295673 12.81151195 7 10 C6.01 9.67 5.02 9.34 4 9 C4.4481179 12.23066964 4.91030025 15.4591772 5.375 18.6875 C5.50132813 19.59951172 5.62765625 20.51152344 5.7578125 21.45117188 C6.51738203 29.22959347 6.51738203 29.22959347 10.7265625 35.36328125 C11.35304688 35.67652344 11.97953125 35.98976562 12.625 36.3125 C13.73875 36.869375 14.8525 37.42625 16 38 C16 38.66 16 39.32 16 40 C19.63 40 23.26 40 27 40 C27 40.33 27 40.66 27 41 C25.06318839 41.08107583 23.1254066 41.13922475 21.1875 41.1875 C20.10855469 41.22230469 19.02960938 41.25710937 17.91796875 41.29296875 C14.6147776 40.96132305 14.03814472 40.47489002 12 38 C10.02379014 36.95377125 8.0262871 35.94560065 6 35 C6.33 36.32 6.66 37.64 7 39 C6.01 38.34 5.02 37.68 4 37 C4 36.34 4 35.68 4 35 C3.34 35 2.68 35 2 35 C-0.45913482 23.36302275 -0.20714199 11.83418115 0 0 Z " fill="#978888" transform="translate(91,50)"/>
<path d="M0 0 C0 1.32 0 2.64 0 4 C-27.33959289 5.2335142 -54.62829048 6.40518358 -82 6 C-82 4.35 -82 2.7 -82 1 C-54.66013422 0.1338959 -27.3528006 -0.13041385 0 0 Z " fill="#648183" transform="translate(158,155)"/>
<path d="M0 0 C2.475 0.495 2.475 0.495 5 1 C6.18757342 9.56749393 7.2066179 18.09210185 7.3125 26.75 C7.32925781 28.02359375 7.34601563 29.2971875 7.36328125 30.609375 C6.97580234 34.2258448 6.23318767 36.15282156 4 39 C3.34 39 2.68 39 2 39 C2 37.68 2 36.36 2 35 C-0.31 36.98 -2.62 38.96 -5 41 C-3 37 -3 37 -1 35 C-0.8272121 32.49896834 -0.76756518 30.12243 -0.8125 27.625 C-0.81314453 26.95210937 -0.81378906 26.27921875 -0.81445312 25.5859375 C-0.84396205 22.25470816 -0.97917936 19.18496038 -2 16 C-2.66 16 -3.32 16 -4 16 C-4.061875 16.721875 -4.12375 17.44375 -4.1875 18.1875 C-5.55814945 22.93205578 -9.00504304 25.33669536 -13 28 C-15 27.875 -15 27.875 -17 27 C-18.75 24.9375 -18.75 24.9375 -20 23 C-19.4225 23.33 -18.845 23.66 -18.25 24 C-15.80116138 25.27075898 -15.80116138 25.27075898 -12 25 C-10.36323743 23.0399719 -10.36323743 23.0399719 -9 21 C-8.34 21 -7.68 21 -7 21 C-7 19.68 -7 18.36 -7 17 C-6.34 17 -5.68 17 -5 17 C-4.34 15.02 -3.68 13.04 -3 11 C-1.68 11 -0.36 11 1 11 C1.33 18.26 1.66 25.52 2 33 C2.99 32.505 2.99 32.505 4 32 C4.1820896 22.63250185 3.61326035 13.3412692 3 4 C1.68 3.67 0.36 3.34 -1 3 C-1 3.99 -1 4.98 -1 6 C-1.66 6 -2.32 6 -3 6 C-3.33 7.32 -3.66 8.64 -4 10 C-5.65 10 -7.3 10 -9 10 C-8.67 8.68 -8.34 7.36 -8 6 C-6.68 6.66 -5.36 7.32 -4 8 C-3.896875 7.4225 -3.79375 6.845 -3.6875 6.25 C-2.90207202 3.67950842 -1.69495803 2.06342716 0 0 Z M-21 7 C-20.67 7.99 -20.34 8.98 -20 10 C-19.01 9.34 -18.02 8.68 -17 8 C-14.15879766 8.35515029 -11.71952248 9.09349251 -9 10 C-8.63076923 16.4 -8.63076923 16.4 -10.5 19.4375 C-10.995 19.953125 -11.49 20.46875 -12 21 C-14.76276177 20.47731534 -17.3260876 19.89130413 -20 19 C-20.33 16.69 -20.66 14.38 -21 12 C-22.1446875 12.12375 -22.1446875 12.12375 -23.3125 12.25 C-26 12 -26 12 -27.8125 10 C-28.4003125 9.01 -28.4003125 9.01 -29 8 C-28.401875 8.309375 -27.80375 8.61875 -27.1875 8.9375 C-24.91043228 10.10209704 -24.91043228 10.10209704 -22 11 C-21.67 9.68 -21.34 8.36 -21 7 Z " fill="#ABABAA" transform="translate(127,47)"/>
<path d="M0 0 C0.33 0 0.66 0 1 0 C1.33 3.96 1.66 7.92 2 12 C1.01 12.33 0.02 12.66 -1 13 C-0.979375 14.051875 -0.95875 15.10375 -0.9375 16.1875 C-0.98896802 19.32704904 -1.26517187 21.96883396 -2 25 C-6.27696074 25.42769607 -8.41273617 25.38351924 -12.0625 23 C-20.840625 14.67142857 -20.840625 14.67142857 -21.1640625 9.25 C-21.10992187 8.5075 -21.05578125 7.765 -21 7 C-19.865625 6.855625 -18.73125 6.71125 -17.5625 6.5625 C-14.19222799 6.38828522 -14.19222799 6.38828522 -13 5 C-10.66702567 4.95907063 -8.33294775 4.95758277 -6 5 C-6 5.66 -6 6.32 -6 7 C-4.35 7.66 -2.7 8.32 -1 9 C-0.67 6.03 -0.34 3.06 0 0 Z " fill="#A5928B" transform="translate(113,118)"/>
<path d="M0 0 C3.96 0 7.92 0 12 0 C11.67 0.66 11.34 1.32 11 2 C8.69 2 6.38 2 4 2 C5.26723343 6.54091981 6.99903136 9.39883763 10 13 C10 13.66 10 14.32 10 15 C10.928125 15.433125 10.928125 15.433125 11.875 15.875 C14 17 14 17 16 19 C18.32275177 19.40047444 20.65739357 19.7397104 23 20 C23.33 16.7 23.66 13.4 24 10 C24.33 10 24.66 10 25 10 C25.33 14.29 25.66 18.58 26 23 C26.99 23.33 27.98 23.66 29 24 C29 17.73 29 11.46 29 5 C29.33 5 29.66 5 30 5 C30.17254418 7.08285479 30.33763587 9.16632693 30.5 11.25 C30.5928125 12.41015625 30.685625 13.5703125 30.78125 14.765625 C31.06046178 20.17036726 31 25.58805043 31 31 C44.2 31 57.4 31 71 31 C71 32.65 71 34.3 71 36 C70.505 34.02 70.505 34.02 70 32 C55.81 32 41.62 32 27 32 C27 29.69 27 27.38 27 25 C25.865625 25.103125 24.73125 25.20625 23.5625 25.3125 C16.89550821 25.3125 11.90427649 21.73868723 7.125 17.375 C6.42375 16.59125 5.7225 15.8075 5 15 C4.46375 14.54625 3.9275 14.0925 3.375 13.625 C1.14885262 10.99409855 0.11613061 8.23677877 -1 5 C-0.67 3.35 -0.34 1.7 0 0 Z " fill="#959291" transform="translate(88,123)"/>
<path d="M0 0 C1.231394 2.46278801 1.07159196 4.2795055 1 7 C1.33 5.68 1.66 4.36 2 3 C2.66 3 3.32 3 4 3 C5.12513633 11.01659634 5.09579384 18.92138585 5 27 C4.01 26.34 3.02 25.68 2 25 C1.8016246 34.76447781 2.3938031 44.36281858 4 54 C9.28 54 14.56 54 20 54 C20 54.33 20 54.66 20 55 C17.20775927 55.08071788 14.41783434 55.14035408 11.625 55.1875 C10.8309375 55.21263672 10.036875 55.23777344 9.21875 55.26367188 C7.14413852 55.29004405 5.06899135 55.15486462 3 55 C0.629501 51.4442515 0.30434445 48.45238659 -0.125 44.3125 C-0.20919189 43.51537598 -0.29338379 42.71825195 -0.38012695 41.89697266 C-1.16759462 33.23403048 -1.18822385 24.56637286 -1.1875 15.875 C-1.18840637 15.14729401 -1.18931274 14.41958801 -1.19024658 13.66983032 C-1.18995333 11.58967882 -1.18106499 9.50979426 -1.16796875 7.4296875 C-1.16047607 6.21522949 -1.1529834 5.00077148 -1.14526367 3.74951172 C-1 1 -1 1 0 0 Z " fill="#718F90" transform="translate(50,32)"/>
<path d="M0 0 C0.66 1.32 1.32 2.64 2 4 C2.33 3.01 2.66 2.02 3 1 C4.32 1.33 5.64 1.66 7 2 C6.01 2 5.02 2 4 2 C4.4481179 5.23066964 4.91030025 8.4591772 5.375 11.6875 C5.50132813 12.59951172 5.62765625 13.51152344 5.7578125 14.45117188 C6.51738203 22.22959347 6.51738203 22.22959347 10.7265625 28.36328125 C11.35304688 28.67652344 11.97953125 28.98976563 12.625 29.3125 C13.73875 29.869375 14.8525 30.42625 16 31 C16 31.66 16 32.32 16 33 C19.63 33 23.26 33 27 33 C27 33.33 27 33.66 27 34 C25.06318839 34.08107583 23.1254066 34.13922475 21.1875 34.1875 C20.10855469 34.22230469 19.02960938 34.25710937 17.91796875 34.29296875 C14.6147776 33.96132305 14.03814472 33.47489002 12 31 C10.02379014 29.95377125 8.0262871 28.94560065 6 28 C6.33 29.32 6.66 30.64 7 32 C6.01 31.34 5.02 30.68 4 30 C4 29.34 4 28.68 4 28 C3.34 28 2.68 28 2 28 C0.21168141 18.53149174 -0.23889655 9.59567793 0 0 Z " fill="#9A9C9C" transform="translate(91,57)"/>
<path d="M0 0 C1.916588 -0.02712153 3.8332873 -0.04645097 5.75 -0.0625 C7.35101563 -0.07990234 7.35101563 -0.07990234 8.984375 -0.09765625 C11.53368501 -0.01510087 13.57933591 0.25382442 16 1 C16 2.65 16 4.3 16 6 C3.65645695 12.30960265 3.65645695 12.30960265 -3 12 C-2.875 10.125 -2.875 10.125 -2 8 C-0.01276732 7.29618843 1.98777953 6.6288189 4 6 C4.33 5.01 4.66 4.02 5 3 C3.02 3.33 1.04 3.66 -1 4 C-0.67 2.68 -0.34 1.36 0 0 Z " fill="#A89E9D" transform="translate(133,109)"/>
<path d="M0 0 C0.66 0.33 1.32 0.66 2 1 C1.67 1.66 1.34 2.32 1 3 C2.98 2.67 4.96 2.34 7 2 C6.875 3.875 6.875 3.875 6 6 C4.01276732 6.70381157 2.01222047 7.3711811 0 8 C-0.33 8.99 -0.66 9.98 -1 11 C3.7539867 9.85248597 8.37892907 8.61737483 13 7 C12.67 7.99 12.34 8.98 12 10 C13.65 9.67 15.3 9.34 17 9 C14.73745228 12.39382157 13.79151933 12.83872044 10 14 C7.50463867 14.22705078 7.50463867 14.22705078 4.91796875 14.1953125 C3.52094727 14.18564453 3.52094727 14.18564453 2.09570312 14.17578125 C1.13599609 14.15902344 0.17628906 14.14226562 -0.8125 14.125 C-1.79154297 14.11597656 -2.77058594 14.10695313 -3.77929688 14.09765625 C-6.18645061 14.07417182 -8.59309743 14.0413284 -11 14 C-11.33 15.32 -11.66 16.64 -12 18 C-12.144375 17.38125 -12.28875 16.7625 -12.4375 16.125 C-12.93152225 13.96741678 -12.93152225 13.96741678 -14 12 C-13.01 12 -12.02 12 -11 12 C-10.87625 11.360625 -10.7525 10.72125 -10.625 10.0625 C-10.41875 9.381875 -10.2125 8.70125 -10 8 C-9.34 7.67 -8.68 7.34 -8 7 C-8.66 8.98 -9.32 10.96 -10 13 C-7.69 13 -5.38 13 -3 13 C-2.95101562 12.22914062 -2.90203125 11.45828125 -2.8515625 10.6640625 C-2.77679688 9.66117188 -2.70203125 8.65828125 -2.625 7.625 C-2.52058594 6.12839844 -2.52058594 6.12839844 -2.4140625 4.6015625 C-2 2 -2 2 0 0 Z " fill="#A1908F" transform="translate(131,110)"/>
<path d="M0 0 C5.54688746 -0.34668047 10.03846491 0.37901516 15 3 C16.734375 4.60546875 16.734375 4.60546875 18 6 C17.67 6.99 17.34 7.98 17 9 C13.535 7.02 13.535 7.02 10 5 C11.3089572 8.12197478 11.3089572 8.12197478 14 10 C14.625 12.5625 14.625 12.5625 15 15 C11.63670142 14.42012094 10.3276513 13.42075735 8 11 C7.175 10.525625 6.35 10.05125 5.5 9.5625 C2.87968119 7.92480074 1.53511335 6.6662495 0 4 C0 2.68 0 1.36 0 0 Z " fill="#B8B9B8" transform="translate(93,127)"/>
<path d="M0 0 C0.91475098 -0.01289063 1.82950195 -0.02578125 2.77197266 -0.0390625 C4.93263275 -0.04240523 7.09299997 0.06174605 9.25 0.1875 C9.91 0.8475 10.57 1.5075 11.25 2.1875 C-6.24 2.8475 -23.73 3.5075 -41.75 4.1875 C-41.75 6.1675 -41.75 8.1475 -41.75 10.1875 C-42.41 9.5275 -43.07 8.8675 -43.75 8.1875 C-43.375 4.5625 -43.375 4.5625 -42.75 1.1875 C-14.16733322 0.09642561 -14.16733322 0.09642561 0 0 Z " fill="#577476" transform="translate(93.75,30.8125)"/>
<path d="M0 0 C2.0625 0.4375 2.0625 0.4375 4 1 C-1.90527659 4.44245581 -6.9378767 4.43472704 -13.63671875 4.59375 C-16.8987244 4.73671638 -16.8987244 4.73671638 -18.8828125 6.2265625 C-23.37827946 13.36272333 -22.23057186 23.94279444 -22 32 C-22.33 32 -22.66 32 -23 32 C-25.43056647 8.30197694 -25.43056647 8.30197694 -22 2 C-21.36908447 1.97494385 -20.73816895 1.9498877 -20.08813477 1.92407227 C-17.24603175 1.80845863 -14.40428917 1.68557684 -11.5625 1.5625 C-10.56927734 1.52318359 -9.57605469 1.48386719 -8.55273438 1.44335938 C-7.60849609 1.40146484 -6.66425781 1.35957031 -5.69140625 1.31640625 C-4.81685791 1.27974854 -3.94230957 1.24309082 -3.04125977 1.20532227 C-1.0072598 1.21818934 -1.0072598 1.21818934 0 0 Z " fill="#B1B5B4" transform="translate(142,122)"/>
<path d="M0 0 C1.65 0.33 3.3 0.66 5 1 C5.61326035 10.3412692 6.1820896 19.63250185 6 29 C5.01 29.33 4.02 29.66 3 30 C2.92483154 28.9627478 2.92483154 28.9627478 2.84814453 27.90454102 C2.61691118 24.78970714 2.37115591 21.67618856 2.125 18.5625 C2.04636719 17.47388672 1.96773438 16.38527344 1.88671875 15.26367188 C1.80292969 14.22919922 1.71914062 13.19472656 1.6328125 12.12890625 C1.52283936 10.69140015 1.52283936 10.69140015 1.41064453 9.22485352 C1.20737549 8.12355103 1.20737549 8.12355103 1 7 C0.34 6.67 -0.32 6.34 -1 6 C-0.67 4.02 -0.34 2.04 0 0 Z " fill="#8C8484" transform="translate(126,50)"/>
<path d="M0 0 C0.33 0 0.66 0 1 0 C1.17254418 2.08285479 1.33763587 4.16632693 1.5 6.25 C1.5928125 7.41015625 1.685625 8.5703125 1.78125 9.765625 C2.06046178 15.17036726 2 20.58805043 2 26 C15.2 26 28.4 26 42 26 C42 27.65 42 29.3 42 31 C41.505 29.02 41.505 29.02 41 27 C26.81 27 12.62 27 -2 27 C-2 24.36 -2 21.72 -2 19 C-1.34 19 -0.68 19 0 19 C0 12.73 0 6.46 0 0 Z " fill="#909897" transform="translate(117,128)"/>
<path d="M0 0 C0.33 0 0.66 0 1 0 C0.94199219 1.02480469 0.88398437 2.04960938 0.82421875 3.10546875 C0.77730043 4.46610011 0.73180248 5.82678096 0.6875 7.1875 C0.64560547 7.86103516 0.60371094 8.53457031 0.56054688 9.22851562 C0.46209976 13.26484717 0.74363445 14.72137636 3.51953125 17.73828125 C4.33808594 18.48464844 5.15664062 19.23101562 6 20 C6 21.32 6 22.64 6 24 C4.01432292 23.70703125 2.02864583 23.4140625 0.04296875 23.12109375 C-2.2025342 22.86095201 -2.2025342 22.86095201 -5 24 C-4.67 21.69 -4.34 19.38 -4 17 C-3.34 17 -2.68 17 -2 17 C-3.08784968 13.75016865 -3.08784968 13.75016865 -5 11 C-5.04092937 8.66702567 -5.04241723 6.33294775 -5 4 C-4.67 4 -4.34 4 -4 4 C-4 5.98 -4 7.96 -4 10 C-2.68 10 -1.36 10 0 10 C0 6.7 0 3.4 0 0 Z " fill="#98908D" transform="translate(112,33)"/>
<path d="M0 0 C1.32 0 2.64 0 4 0 C5.5625 2.3125 5.5625 2.3125 7 5 C8.20918882 6.87640419 8.20918882 6.87640419 10 8 C13.12549017 8.25048636 13.12549017 8.25048636 16 8 C16 10.97 16 13.94 16 17 C14.68103535 16.07161713 13.37001311 15.13194268 12.0625 14.1875 C11.33160156 13.66542969 10.60070312 13.14335938 9.84765625 12.60546875 C8 11 8 11 7 8 C5.68 8 4.36 8 3 8 C2.67 9.65 2.34 11.3 2 13 C1.67 13 1.34 13 1 13 C0.67 8.71 0.34 4.42 0 0 Z " fill="#928683" transform="translate(91,50)"/>
<path d="M0 0 C4 2 4 2 5 4 C4.67 4.99 4.34 5.98 4 7 C3.85426942 8.47965926 3.75336732 9.96403843 3.68359375 11.44921875 C3.64169922 12.29677734 3.59980469 13.14433594 3.55664062 14.01757812 C3.51732422 14.89865234 3.47800781 15.77972656 3.4375 16.6875 C3.39431641 17.58017578 3.35113281 18.47285156 3.30664062 19.39257812 C3.20064647 21.59490108 3.09857949 23.79733473 3 26 C1.68 25.67 0.36 25.34 -1 25 C-1.33 20.05 -1.66 15.1 -2 10 C-1.34 9.67 -0.68 9.34 0 9 C0 6.03 0 3.06 0 0 Z " fill="#977972" transform="translate(114,121)"/>
<path d="M0 0 C-0.97114746 0.59808472 -0.97114746 0.59808472 -1.96191406 1.20825195 C-4.17084826 2.80823484 -4.17084826 2.80823484 -4.54589844 5.17651367 C-4.5668457 5.99869385 -4.58779297 6.82087402 -4.609375 7.66796875 C-4.64160156 8.56064453 -4.67382812 9.45332031 -4.70703125 10.37304688 C-4.72121094 11.30181641 -4.73539062 12.23058594 -4.75 13.1875 C-4.79447266 14.59805664 -4.79447266 14.59805664 -4.83984375 16.03710938 C-4.91053562 18.35815916 -4.96323165 20.67820535 -5 23 C-3.02872458 22.75509062 -3.02872458 22.75509062 -1 22 C-0.28233745 20.27108567 0.43094223 18.53973956 1.09375 16.7890625 C2.6570459 13.70290076 4.98645863 12.50677069 8 11 C10.875 10.75 10.875 10.75 13 11 C11 13 11 13 7.625 14.125 C3.62535449 15.74647791 2.46850467 18.1033759 0.82421875 21.96484375 C0.55222656 22.63644531 0.28023438 23.30804688 0 24 C-0.65644099 25.33839735 -1.32030568 26.67326044 -2 28 C-3.32 28 -4.64 28 -6 28 C-6.19619224 23.70868391 -6.38048583 19.41693898 -6.5625 15.125 C-6.61857422 13.90167969 -6.67464844 12.67835937 -6.73242188 11.41796875 C-6.78076172 10.25136719 -6.82910156 9.08476563 -6.87890625 7.8828125 C-6.9260376 6.80402832 -6.97316895 5.72524414 -7.02172852 4.61376953 C-7 2 -7 2 -6 0 C-3 -1 -3 -1 0 0 Z " fill="#A8A6A4" transform="translate(122,94)"/>
<path d="M0 0 C0.76636091 3.46089679 1.17149371 6.76077488 1.31640625 10.30078125 C1.35830078 11.27724609 1.40019531 12.25371094 1.44335938 13.25976562 C1.48267578 14.26716797 1.52199219 15.27457031 1.5625 16.3125 C1.60568359 17.33923828 1.64886719 18.36597656 1.69335938 19.42382812 C1.79906825 21.94909569 1.90116468 24.47445562 2 27 C1.34 26.34 0.68 25.68 0 25 C-0.66 25.33 -1.32 25.66 -2 26 C-2.75475351 17.64380043 -3.13605482 9.39004715 -3 1 C-1 0 -1 0 0 0 Z " fill="#5E7D7E" transform="translate(54,54)"/>
<path d="M0 0 C-0.33 0.61875 -0.66 1.2375 -1 1.875 C-2.14193235 3.91018344 -2.14193235 3.91018344 -2 6 C-2.15691536 7.7092566 -2.32487315 9.41751321 -2.5 11.125 C-2.5928125 12.03507812 -2.685625 12.94515625 -2.78125 13.8828125 C-2.8534375 14.58148438 -2.925625 15.28015625 -3 16 C-5.31 16 -7.62 16 -10 16 C-8.18627451 6.20588235 -8.18627451 6.20588235 -5 2 C-2 0 -2 0 0 0 Z " fill="#A0857D" transform="translate(131,107)"/>
<path d="M0 0 C0 0.99 0 1.98 0 3 C-11.88 3 -23.76 3 -36 3 C-35.67 2.34 -35.34 1.68 -35 1 C-30.49765878 0.85698401 -25.99529866 0.7145839 -21.49291992 0.57275391 C-19.96133905 0.52442063 -18.42976347 0.47591922 -16.89819336 0.42724609 C-14.69646555 0.35730466 -12.49471939 0.28796838 -10.29296875 0.21875 C-9.60849167 0.19687622 -8.92401459 0.17500244 -8.21879578 0.15246582 C-5.47747521 0.06676924 -2.74289945 0 0 0 Z " fill="#4B696B" transform="translate(157,155)"/>
<path d="M0 0 C1.25627503 3.7688251 0.76528833 5.56300172 -0.6328125 9.19140625 C-2.52942008 11.70034713 -4.14249939 11.90911461 -7.1875 12.5 C-8.78767047 12.70145208 -10.39172115 12.87930365 -12 13 C-12 12.67 -12 12.34 -12 12 C-14.64 11.67 -17.28 11.34 -20 11 C-20 10.67 -20 10.34 -20 10 C-19.41992188 9.97421875 -18.83984375 9.9484375 -18.2421875 9.921875 C-9.9835623 9.32223885 -5.65714419 5.98991738 0 0 Z " fill="#959396" transform="translate(129,81)"/>
<path d="M0 0 C11.55 0 23.1 0 35 0 C30.74007653 2.12996173 28.51793362 2.29873934 23.828125 2.4140625 C22.8044986 2.44311172 22.8044986 2.44311172 21.76019287 2.4727478 C19.59025392 2.53231098 17.42026123 2.57883446 15.25 2.625 C13.77471703 2.66320131 12.29945585 2.7022543 10.82421875 2.7421875 C7.21634582 2.83799235 3.60830917 2.92210916 0 3 C0 2.01 0 1.02 0 0 Z " fill="#4C6A6B" transform="translate(77,157)"/>
<path d="M0 0 C2.96175123 0.61277612 4.38058783 1.25372522 7 3 C7.66 2.34 8.32 1.68 9 1 C8.67 4.3 8.34 7.6 8 11 C1.97463002 11.602537 1.97463002 11.602537 -0.80078125 9.88671875 C-2.25599455 8.65378147 -3.63479157 7.33191067 -5 6 C-4.01 5.67 -3.02 5.34 -2 5 C-1.1028125 5.9590625 -1.1028125 5.9590625 -0.1875 6.9375 C1.90810337 9.20310389 1.90810337 9.20310389 5 10 C4.81171228 7.55519921 4.81171228 7.55519921 4 5 C2.03241727 3.63979849 2.03241727 3.63979849 0 3 C0 2.01 0 1.02 0 0 Z " fill="#B19F9B" transform="translate(103,132)"/>
<path d="M0 0 C0.33 0 0.66 0 1 0 C1.06058594 0.91523438 1.12117188 1.83046875 1.18359375 2.7734375 C1.26738281 3.96195313 1.35117188 5.15046875 1.4375 6.375 C1.51871094 7.55835938 1.59992188 8.74171875 1.68359375 9.9609375 C1.81084936 12.91518901 1.81084936 12.91518901 3 15 C-2.39449293 15.27429625 -5.51925805 15.36055646 -10 12 C-6.5647952 9.70986347 -5.014669 9.82157027 -1 10 C-0.67 6.7 -0.34 3.4 0 0 Z " fill="#A3918F" transform="translate(112,133)"/>
<path d="M0 0 C2.64 0 5.28 0 8 0 C8 3 8 3 6.75 4.38671875 C1.95763128 7.94890354 -1.05913587 8.52112843 -7 8 C-7 7.34 -7 6.68 -7 6 C-6.21625 5.938125 -5.4325 5.87625 -4.625 5.8125 C-3.75875 5.544375 -2.8925 5.27625 -2 5 C-0.62533375 2.52363988 -0.62533375 2.52363988 0 0 Z " fill="#BBB5B7" transform="translate(140,111)"/>
<path d="M0 0 C0.33 0 0.66 0 1 0 C3.38858824 8.36005884 3.190218 16.38735156 3 25 C2.34 25 1.68 25 1 25 C-0.00005304 21.99984088 -0.11575585 20.02576244 -0.09765625 16.89453125 C-0.09443359 15.91162109 -0.09121094 14.92871094 -0.08789062 13.91601562 C-0.07951172 12.89185547 -0.07113281 11.86769531 -0.0625 10.8125 C-0.05798828 9.77673828 -0.05347656 8.74097656 -0.04882812 7.67382812 C-0.0370401 5.11582734 -0.02058515 2.55794267 0 0 Z " fill="#8A827E" transform="translate(113,96)"/>
<path d="M0 0 C0.33 0 0.66 0 1 0 C1 5.33333333 1 10.66666667 1 16 C0.01 16 -0.98 16 -2 16 C-2 13.69 -2 11.38 -2 9 C-2.99 8.67 -3.98 8.34 -5 8 C-4.67 7.34 -4.34 6.68 -4 6 C-3.01 6 -2.02 6 -1 6 C-0.67 4.02 -0.34 2.04 0 0 Z M-4 16 C-3.34 16.33 -2.68 16.66 -2 17 C-4.12055614 20.1808342 -5.63050557 21.31525278 -9 23 C-9.66 22.67 -10.32 22.34 -11 22 C-8.69 20.02 -6.38 18.04 -4 16 Z " fill="#A3B5B5" transform="translate(157,99)"/>
<path d="M0 0 C1.134375 0.020625 2.26875 0.04125 3.4375 0.0625 C3.4375 0.7225 3.4375 1.3825 3.4375 2.0625 C5.0875 2.7225 6.7375 3.3825 8.4375 4.0625 C9.0975 3.4025 9.7575 2.7425 10.4375 2.0625 C10.4375 3.3825 10.4375 4.7025 10.4375 6.0625 C5.68268354 5.48615861 2.46701788 3.51181479 -1.5625 1.0625 C-1.5625 2.0525 -1.5625 3.0425 -1.5625 4.0625 C-0.9025 4.3925 -0.2425 4.7225 0.4375 5.0625 C-3.1925 4.7325 -6.8225 4.4025 -10.5625 4.0625 C-10.8925 5.0525 -11.2225 6.0425 -11.5625 7.0625 C-11.5625 5.4125 -11.5625 3.7625 -11.5625 2.0625 C-10.428125 1.918125 -9.29375 1.77375 -8.125 1.625 C-4.13770521 0.99542714 -4.0324238 0.07074428 0 0 Z " fill="#A19C99" transform="translate(103.5625,122.9375)"/>
<path d="M0 0 C1.35439668 2.70879335 1.06501451 5.00933268 1 8 C-1.375 8.625 -1.375 8.625 -4 9 C-6 7 -6 7 -6.3125 4.5 C-6.209375 3.675 -6.10625 2.85 -6 2 C-3 0 -3 0 0 0 Z " fill="#BFC0BF" transform="translate(115,57)"/>
<path d="M0 0 C2.79828356 0.38597015 3.8205884 0.80136573 5.75 2.9375 C7 5 7 5 7 7 C7.598125 7.2475 8.19625 7.495 8.8125 7.75 C11.28647521 9.16370012 12.43370255 10.65055383 14 13 C11.75 13.375 11.75 13.375 9 13 C7 10.25 7 10.25 5 7 C4.0925 6.278125 3.185 5.55625 2.25 4.8125 C1.5075 4.214375 0.765 3.61625 0 3 C0 2.01 0 1.02 0 0 Z " fill="#8D8786" transform="translate(91,131)"/>
<path d="M0 0 C0.33 0 0.66 0 1 0 C1.3690205 12.66970387 1.3690205 12.66970387 -1 18 C-1.66 18 -2.32 18 -3 18 C-3 16.68 -3 15.36 -3 14 C-5.31 15.98 -7.62 17.96 -10 20 C-8 16 -8 16 -6.4375 14.75 C-4.06970784 11.86747041 -4.29987295 8.65844994 -4 5 C-3.67 5 -3.34 5 -3 5 C-3 7.31 -3 9.62 -3 12 C-2.34 11.67 -1.68 11.34 -1 11 C-0.5316735 8.41394668 -0.5316735 8.41394668 -0.375 5.4375 C-0.30023438 4.42558594 -0.22546875 3.41367188 -0.1484375 2.37109375 C-0.09945312 1.58863281 -0.05046875 0.80617188 0 0 Z " fill="#989799" transform="translate(132,68)"/>
<path d="M0 0 C-2 2 -2 2 -5.375 3.125 C-9.37464551 4.74647791 -10.53149533 7.1033759 -12.17578125 10.96484375 C-12.44777344 11.63644531 -12.71976562 12.30804688 -13 13 C-13.65644099 14.33839735 -14.32030568 15.67326044 -15 17 C-15.99 17 -16.98 17 -18 17 C-18 15.35 -18 13.7 -18 12 C-17.401875 11.979375 -16.80375 11.95875 -16.1875 11.9375 C-13.60264329 11.13087911 -13.60264329 11.13087911 -12.625 7.6875 C-12.3878125 7.06101562 -12.150625 6.43453125 -11.90625 5.7890625 C-9.51292557 1.06430996 -5.01417123 -0.5899025 0 0 Z " fill="#AFB4B0" transform="translate(135,105)"/>
<path d="M0 0 C0.33 0.99 0.66 1.98 1 3 C1.99 2.34 2.98 1.68 4 1 C6.6875 1.375 6.6875 1.375 9 2 C5.375 5 5.375 5 2 5 C2.33 7.31 2.66 9.62 3 12 C2.34 12 1.68 12 1 12 C0.67 9.69 0.34 7.38 0 5 C-1.1446875 5.12375 -1.1446875 5.12375 -2.3125 5.25 C-5 5 -5 5 -6.8125 3 C-7.4003125 2.01 -7.4003125 2.01 -8 1 C-7.401875 1.309375 -6.80375 1.61875 -6.1875 1.9375 C-3.91043228 3.10209704 -3.91043228 3.10209704 -1 4 C-0.67 2.68 -0.34 1.36 0 0 Z " fill="#A89F9D" transform="translate(106,54)"/>
<path d="M0 0 C3.87990465 1.12086134 6.28003781 2.03276853 9 5 C11.09989652 6.17574711 11.09989652 6.17574711 13 7 C13 7.33 13 7.66 13 8 C8.16819341 8.34512904 5.0488862 7.73064418 1 5 C0.125 2.3125 0.125 2.3125 0 0 Z " fill="#878685" transform="translate(97,85)"/>
<path d="M0 0 C0.886875 0.639375 1.77375 1.27875 2.6875 1.9375 C5.7472646 3.84263645 7.54754456 4.42459076 11 5 C11.66 5.66 12.32 6.32 13 7 C12.01 8.485 12.01 8.485 11 10 C11.99 10.33 12.98 10.66 14 11 C10.62537285 10.45276317 8.91765 9.9451 6 8 C6 7.34 6 6.68 6 6 C5.38125 5.7525 4.7625 5.505 4.125 5.25 C1.64931313 3.79371361 1.04874998 2.62187494 0 0 Z " fill="#98928F" transform="translate(101,62)"/>
<path d="M0 0 C2.45605371 2.55274874 2.98802939 3.85890643 3.29296875 7.453125 C3.25816406 8.70609375 3.22335938 9.9590625 3.1875 11.25 C3.16042969 12.51328125 3.13335937 13.7765625 3.10546875 15.078125 C3.07066406 16.04234375 3.03585938 17.0065625 3 18 C2.34 18 1.68 18 1 18 C-0.2062252 14.38132441 -0.10816918 11.07493749 -0.0625 7.3125 C-0.05798828 6.61060547 -0.05347656 5.90871094 -0.04882812 5.18554688 C-0.03706927 3.45699462 -0.01913454 1.72848635 0 0 Z " fill="#95918F" transform="translate(91,57)"/>
<path d="M0 0 C0.33 0 0.66 0 1 0 C0.98839844 1.05960938 0.97679688 2.11921875 0.96484375 3.2109375 C0.95546524 4.59895658 0.94636511 5.98697755 0.9375 7.375 C0.92912109 8.07367188 0.92074219 8.77234375 0.91210938 9.4921875 C0.8164558 13.37295376 0.8164558 13.37295376 2 17 C0.68 17 -0.64 17 -2 17 C-2.309375 16.195625 -2.61875 15.39125 -2.9375 14.5625 C-3.76335345 12.10919595 -3.76335345 12.10919595 -5 11 C-5.04092937 8.66702567 -5.04241723 6.33294775 -5 4 C-4.67 4 -4.34 4 -4 4 C-4 5.98 -4 7.96 -4 10 C-2.68 10 -1.36 10 0 10 C0 6.7 0 3.4 0 0 Z " fill="#8AA3A1" transform="translate(112,33)"/>
<path d="M0 0 C0.33 0 0.66 0 1 0 C1.29296875 6.0546875 1.29296875 6.0546875 1 8 C-2 10 -2 10 -5 10 C-4.300926 6.22500037 -2.74803773 2.74803773 0 0 Z " fill="#957974" transform="translate(126,113)"/>
<path d="M0 0 C2.91517292 1.07401108 4.77810176 1.77810176 7 4 C6.67 4.99 6.34 5.98 6 7 C2.535 5.02 2.535 5.02 -1 3 C0.15173355 5.46800047 1.04783565 7.04783565 3 9 C-0.875 8.125 -0.875 8.125 -2 7 C-2.04063832 5.33382885 -2.042721 3.66611905 -2 2 C-1.34 2 -0.68 2 0 2 C0 1.34 0 0.68 0 0 Z " fill="#B7AAA8" transform="translate(104,129)"/>
<path d="M0 0 C1.32 0 2.64 0 4 0 C4 2.97 4 5.94 4 9 C2.35 8.01 0.7 7.02 -1 6 C-0.67 4.02 -0.34 2.04 0 0 Z " fill="#8E7F79" transform="translate(126,50)"/>
<path d="M0 0 C4 1 4 1 5.25 3.0625 C5.4975 3.701875 5.745 4.34125 6 5 C4.68 4.34 3.36 3.68 2 3 C2 6.96 2 10.92 2 15 C1.67 15 1.34 15 1 15 C0.67 10.05 0.34 5.1 0 0 Z " fill="#B3B3B1" transform="translate(95,59)"/>
<path d="M0 0 C0.66 0.99 1.32 1.98 2 3 C2.66 2.67 3.32 2.34 4 2 C4.33 3.32 4.66 4.64 5 6 C6.32 6.33 7.64 6.66 9 7 C3.72 6.67 -1.56 6.34 -7 6 C-7 5.67 -7 5.34 -7 5 C-5.02 4.67 -3.04 4.34 -1 4 C-0.67 2.68 -0.34 1.36 0 0 Z " fill="#A0B2AF" transform="translate(142,99)"/>
<path d="M0 0 C0.66 0 1.32 0 2 0 C3.28317892 3.84953676 3.06643637 6.94738135 3 11 C2.01 11 1.02 11 0 11 C0 7.37 0 3.74 0 0 Z " fill="#506E6C" transform="translate(108,32)"/>
<path d="M0 0 C1 3 1 3 0 6 C-5.34883721 11 -5.34883721 11 -9 11 C-9 10.34 -9 9.68 -9 9 C-8.236875 8.566875 -7.47375 8.13375 -6.6875 7.6875 C-3.66546613 5.78994385 -2.63953619 4.11511876 -1 1 C-0.67 0.67 -0.34 0.34 0 0 Z " fill="#868487" transform="translate(129,81)"/>
<path d="M0 0 C0.66 0.33 1.32 0.66 2 1 C1.67 1.66 1.34 2.32 1 3 C2.65 2.67 4.3 2.34 6 2 C3.42595029 5.86107457 1.38979741 5.94319692 -3 7 C-3.33 5.35 -3.66 3.7 -4 2 C-2.125 0.9375 -2.125 0.9375 0 0 Z " fill="#999699" transform="translate(142,117)"/>
<path d="M0 0 C-1 1 -1 1 -3.5625 1.0625 C-4.7690625 1.0315625 -4.7690625 1.0315625 -6 1 C-6 1.66 -6 2.32 -6 3 C-4.35 3 -2.7 3 -1 3 C-3 5 -3 5 -6.125 5.125 C-7.548125 5.063125 -7.548125 5.063125 -9 5 C-8.875 3.125 -8.875 3.125 -8 1 C-2.71910112 -1.35955056 -2.71910112 -1.35955056 0 0 Z " fill="#B6A4A4" transform="translate(139,116)"/>
<path d="M0 0 C3.71599191 -0.20086443 4.77208445 -0.1519437 8 2 C8.1875 5.625 8.1875 5.625 8 9 C7.34 9 6.68 9 6 9 C5.67 7.02 5.34 5.04 5 3 C3.68 3 2.36 3 1 3 C0.67 2.01 0.34 1.02 0 0 Z " fill="#8F9897" transform="translate(147,106)"/>
<path d="M0 0 C0.66 0 1.32 0 2 0 C1.5359375 1.1446875 1.5359375 1.1446875 1.0625 2.3125 C0.32106407 4.18789677 -0.36228217 6.08684652 -1 8 C-2.9375 7.625 -2.9375 7.625 -5 7 C-5.33 6.34 -5.66 5.68 -6 5 C-5.195625 4.54625 -4.39125 4.0925 -3.5625 3.625 C-0.91143428 2.25274335 -0.91143428 2.25274335 0 0 Z " fill="#BABDBE" transform="translate(106,50)"/>
<path d="M0 0 C0.33 0 0.66 0 1 0 C1.3690205 12.66970387 1.3690205 12.66970387 -1 18 C-1.66 18 -2.32 18 -3 18 C-2.690625 17.071875 -2.38125 16.14375 -2.0625 15.1875 C-0.6216844 10.22128454 -0.35305964 5.13794694 0 0 Z " fill="#A1A3A3" transform="translate(132,68)"/>
<path d="M0 0 C1.875 0.1875 1.875 0.1875 4 1 C5.25 3.5625 5.25 3.5625 6 6 C3.5625 5.25 3.5625 5.25 1 4 C0.1875 1.875 0.1875 1.875 0 0 Z " fill="#9E9292" transform="translate(103,132)"/>
<path d="M0 0 C2.96175123 0.61277612 4.38058783 1.25372522 7 3 C7 3.66 7 4.32 7 5 C2.25 4.125 2.25 4.125 0 3 C0 2.01 0 1.02 0 0 Z " fill="#8F8484" transform="translate(102,124)"/>
<path d="M0 0 C2.64 0 5.28 0 8 0 C8 0.99 8 1.98 8 3 C6.02 3.99 6.02 3.99 4 5 C4 3.68 4 2.36 4 1 C2.68 1.33 1.36 1.66 0 2 C0 1.34 0 0.68 0 0 Z " fill="#B4AEAD" transform="translate(140,111)"/>
<path d="M0 0 C-0.8125 1.9375 -0.8125 1.9375 -2 4 C-2.99 4.33 -3.98 4.66 -5 5 C-6.20882096 7.00016466 -6.20882096 7.00016466 -7 9 C-7.33 8.34 -7.66 7.68 -8 7 C-6.20508813 3.41017626 -4.48054153 0 0 0 Z " fill="#A1A099" transform="translate(131,107)"/>
<path d="M0 0 C0.66 0 1.32 0 2 0 C1.49396008 2.16874252 1.00016187 3.99967627 0 6 C-1.32 6 -2.64 6 -4 6 C-2.84826645 3.53199953 -1.95216435 1.95216435 0 0 Z " fill="#8C8684" transform="translate(116,66)"/>
<path d="M0 0 C0.99 0.33 1.98 0.66 3 1 C3 2.98 3 4.96 3 7 C2.01 7 1.02 7 0 7 C0 4.69 0 2.38 0 0 Z " fill="#878181" transform="translate(150,108)"/>
<path d="M0 0 C1.32 0 2.64 0 4 0 C4 1.65 4 3.3 4 5 C2.68 5 1.36 5 0 5 C0 3.35 0 1.7 0 0 Z " fill="#867F79" transform="translate(91,50)"/>
<path d="M0 0 C0.33 0 0.66 0 1 0 C1.33 2.64 1.66 5.28 2 8 C-0.375 8.1875 -0.375 8.1875 -3 8 C-3.66 7.01 -4.32 6.02 -5 5 C-3.35 5 -1.7 5 0 5 C0 3.35 0 1.7 0 0 Z " fill="#A08681" transform="translate(112,139)"/>
<path d="M0 0 C2.64 0.33 5.28 0.66 8 1 C8.33 1.99 8.66 2.98 9 4 C5.65626525 3.44271087 2.96687001 2.64826111 0 1 C0 0.67 0 0.34 0 0 Z " fill="#9D9798" transform="translate(102,92)"/>
<path d="M0 0 C1.32 0 2.64 0 4 0 C4 1.32 4 2.64 4 4 C2.35 4 0.7 4 -1 4 C-0.67 2.68 -0.34 1.36 0 0 Z " fill="#897D7A" transform="translate(110,50)"/>
<path d="M0 0 C1.32 0 2.64 0 4 0 C3.67 1.65 3.34 3.3 3 5 C2.01 4.67 1.02 4.34 0 4 C0 2.68 0 1.36 0 0 Z " fill="#888582" transform="translate(87,124)"/>
<path d="M0 0 C1.32 0 2.64 0 4 0 C3.67 1.65 3.34 3.3 3 5 C2.01 5 1.02 5 0 5 C0 3.35 0 1.7 0 0 Z " fill="#BFB5B3" transform="translate(117,117)"/>
<path d="M0 0 C1.98 0 3.96 0 6 0 C6.33 0.99 6.66 1.98 7 3 C4.69 2.67 2.38 2.34 0 2 C0 1.34 0 0.68 0 0 Z " fill="#88817F" transform="translate(141,106)"/>
</svg>
