<?xml version="1.0" encoding="UTF-8"?>
<svg version="1.1" xmlns="http://www.w3.org/2000/svg" width="317" height="334">
<path d="M0 0 C72.27 0 144.54 0 219 0 C219 62.7 219 125.4 219 190 C146.73 190 74.46 190 0 190 C0 127.3 0 64.6 0 0 Z " fill="#9DBBBA" transform="translate(0,144)"/>
<path d="M0 0 C0.71169846 0.00045319 1.42339691 0.00090637 2.15666199 0.00137329 C3.27619011 -0.00366463 3.27619011 -0.00366463 4.41833496 -0.00880432 C6.89834738 -0.01834326 9.37829249 -0.020259 11.85832214 -0.02133179 C13.57606535 -0.02454268 15.29380828 -0.02790662 17.0115509 -0.03141785 C20.61803318 -0.03741673 24.22449147 -0.03925701 27.83097839 -0.03866577 C32.4570965 -0.03856419 37.08306099 -0.05220927 41.70914268 -0.06943798 C45.25899464 -0.08054637 48.80880935 -0.08258533 52.35867691 -0.08205605 C54.06434788 -0.08323819 55.77001975 -0.08767305 57.47567368 -0.09538841 C59.86033175 -0.10516359 62.24465501 -0.10232 64.62931824 -0.09628296 C65.33696823 -0.10190247 66.04461823 -0.10752197 66.77371216 -0.11331177 C70.4230761 -0.08978279 71.89523466 0.06187031 75.02238464 2.14663696 C75.71769714 4.94741821 75.71769714 4.94741821 76.14738464 8.45913696 C76.30465027 9.72499634 76.46191589 10.99085571 76.62394714 12.29507446 C77.09052103 16.80528873 77.43552259 21.31473184 77.74504089 25.83804321 C78.03168248 29.25755624 78.47567792 32.62468281 78.95988464 36.02163696 C80.05423573 43.81276333 80.71177122 51.62397347 81.32487488 59.46646118 C81.44004456 60.89369507 81.44004456 60.89369507 81.55754089 62.34976196 C81.65627502 63.62835083 81.65627502 63.62835083 81.75700378 64.93276978 C81.96759733 67.31738781 81.96759733 67.31738781 83.02238464 70.14663696 C83.14067902 71.99808146 83.19753325 73.85395834 83.20988464 75.70913696 C83.22406433 76.67980103 83.23824402 77.65046509 83.25285339 78.65054321 C83.02238464 81.14663696 83.02238464 81.14663696 81.02238464 83.14663696 C78.39277838 83.33406234 75.87045129 83.40233049 73.24113464 83.37710571 C72.47184631 83.37664749 71.70255798 83.37618927 70.90995789 83.37571716 C69.28254149 83.37269449 67.655128 83.36480771 66.02775574 83.35244751 C63.53237188 83.33420995 61.03735939 83.33193769 58.54191589 83.33218384 C56.96248559 83.32726789 55.38305781 83.32143924 53.80363464 83.31460571 C53.05464905 83.31349289 52.30566345 83.31238007 51.53398132 83.31123352 C46.25452786 83.26270857 46.25452786 83.26270857 44.02238464 82.14663696 C43.69238464 82.80663696 43.36238464 83.46663696 43.02238464 84.14663696 C42.03238464 84.64163696 42.03238464 84.64163696 41.02238464 85.14663696 C41.18738464 86.09538696 41.35238464 87.04413696 41.52238464 88.02163696 C42.19307479 92.6973054 42.32939985 97.43305061 42.02238464 102.14663696 C41.02238464 103.14663696 41.02238464 103.14663696 38.32058716 103.26689148 C37.11479507 103.26467087 35.90900299 103.26245026 34.66667175 103.26016235 C34.00328293 103.26030838 33.3398941 103.26045441 32.65640259 103.26060486 C30.45414509 103.25990577 28.2519712 103.25211361 26.04972839 103.24429321 C24.52658128 103.24242902 23.00343357 103.24100512 21.48028564 103.24000549 C17.46400813 103.23618042 13.44776657 103.22635024 9.4315033 103.21530151 C5.33615098 103.20508715 1.24079289 103.20050782 -2.85456848 103.19546509 C-10.89560064 103.18472796 -18.93660353 103.16765168 -26.97761536 103.14663696 C-29.71660042 96.42588275 -30.22615858 90.34190868 -30.54011536 83.14663696 C-30.58329895 82.27651978 -30.62648254 81.40640259 -30.67097473 80.50991821 C-30.99942456 73.36743791 -30.97761536 66.31681239 -30.97761536 59.14663696 C-21.40761536 59.14663696 -11.83761536 59.14663696 -1.97761536 59.14663696 C-1.97761536 55.51663696 -1.97761536 51.88663696 -1.97761536 48.14663696 C-2.63761536 48.14663696 -3.29761536 48.14663696 -3.97761536 48.14663696 C-5.11115032 35.46822926 -6.17408899 22.82108205 -6.16511536 10.08413696 C-6.16575989 9.19315308 -6.16640442 8.30216919 -6.16706848 7.38418579 C-6.10293662 0.04035937 -6.10293662 0.04035937 0 0 Z " fill="#9FBABA" transform="translate(79.97761535644531,193.85336303710938)"/>
<path d="M0 0 C0.71169846 0.00045319 1.42339691 0.00090637 2.15666199 0.00137329 C3.27619011 -0.00366463 3.27619011 -0.00366463 4.41833496 -0.00880432 C6.89834738 -0.01834326 9.37829249 -0.020259 11.85832214 -0.02133179 C13.57606535 -0.02454268 15.29380828 -0.02790662 17.0115509 -0.03141785 C20.61803318 -0.03741673 24.22449147 -0.03925701 27.83097839 -0.03866577 C32.4570965 -0.03856419 37.08306099 -0.05220927 41.70914268 -0.06943798 C45.25899464 -0.08054637 48.80880935 -0.08258533 52.35867691 -0.08205605 C54.06434788 -0.08323819 55.77001975 -0.08767305 57.47567368 -0.09538841 C59.86033175 -0.10516359 62.24465501 -0.10232 64.62931824 -0.09628296 C65.33696823 -0.10190247 66.04461823 -0.10752197 66.77371216 -0.11331177 C70.4230761 -0.08978279 71.89523466 0.06187031 75.02238464 2.14663696 C75.71769714 4.94741821 75.71769714 4.94741821 76.14738464 8.45913696 C76.30465027 9.72499634 76.46191589 10.99085571 76.62394714 12.29507446 C77.09052103 16.80528873 77.43552259 21.31473184 77.74504089 25.83804321 C78.03168248 29.25755624 78.47567792 32.62468281 78.95988464 36.02163696 C80.05423573 43.81276333 80.71177122 51.62397347 81.32487488 59.46646118 C81.44004456 60.89369507 81.44004456 60.89369507 81.55754089 62.34976196 C81.65627502 63.62835083 81.65627502 63.62835083 81.75700378 64.93276978 C81.96759733 67.31738781 81.96759733 67.31738781 83.02238464 70.14663696 C83.14067902 71.99808146 83.19753325 73.85395834 83.20988464 75.70913696 C83.22406433 76.67980103 83.23824402 77.65046509 83.25285339 78.65054321 C83.02238464 81.14663696 83.02238464 81.14663696 81.02238464 83.14663696 C78.39277838 83.33406234 75.87045129 83.40233049 73.24113464 83.37710571 C72.47184631 83.37664749 71.70255798 83.37618927 70.90995789 83.37571716 C69.28254149 83.37269449 67.655128 83.36480771 66.02775574 83.35244751 C63.53237188 83.33420995 61.03735939 83.33193769 58.54191589 83.33218384 C56.96248559 83.32726789 55.38305781 83.32143924 53.80363464 83.31460571 C53.05464905 83.31349289 52.30566345 83.31238007 51.53398132 83.31123352 C46.25452786 83.26270857 46.25452786 83.26270857 44.02238464 82.14663696 C44.02238464 80.82663696 44.02238464 79.50663696 44.02238464 78.14663696 C55.24238464 78.14663696 66.46238464 78.14663696 78.02238464 78.14663696 C77.69238464 73.52663696 77.36238464 68.90663696 77.02238464 64.14663696 C76.96538648 61.68887619 76.93257053 59.22990683 76.95988464 56.77163696 C76.96890808 55.69140259 76.97793152 54.61116821 76.98722839 53.49819946 C76.99882996 52.72218384 77.01043152 51.94616821 77.02238464 51.14663696 C76.36238464 51.14663696 75.70238464 51.14663696 75.02238464 51.14663696 C73.61044823 40.73360591 72.72209821 30.67334474 73.02238464 20.14663696 C72.36238464 20.14663696 71.70238464 20.14663696 71.02238464 20.14663696 C70.96179871 19.21980103 70.90121277 18.29296509 70.83879089 17.33804321 C70.75500183 16.14050415 70.67121277 14.94296509 70.58488464 13.70913696 C70.50367371 12.51417603 70.42246277 11.31921509 70.33879089 10.08804321 C70.3458235 7.26093452 70.3458235 7.26093452 69.02238464 6.14663696 C66.81444053 6.02256881 64.60253979 5.96861419 62.39128113 5.9413147 C61.69863159 5.9314151 61.00598206 5.9215155 60.29234314 5.91131592 C57.99275685 5.87961666 55.69314987 5.85491045 53.39347839 5.83023071 C51.80306447 5.80966844 50.2126561 5.78867217 48.62225342 5.76725769 C44.42848702 5.71196187 40.23467069 5.66258587 36.04081726 5.6144104 C31.76444536 5.56425005 27.4881463 5.50853552 23.21183777 5.45327759 C14.8154132 5.3456042 6.41892704 5.24469279 -1.97761536 5.14663696 C-1.64761536 13.39663696 -1.31761536 21.64663696 -0.97761536 30.14663696 C-0.31761536 30.14663696 0.34238464 30.14663696 1.02238464 30.14663696 C2.01238464 39.38663696 3.00238464 48.62663696 4.02238464 58.14663696 C7.43517761 58.22011353 7.43517761 58.22011353 10.91691589 58.29507446 C13.12116557 58.34908935 15.32530682 58.40639473 17.52946472 58.46401978 C19.06095803 58.50229494 20.5925408 58.53715045 22.12419128 58.56851196 C24.32625794 58.61419503 26.5277096 58.67218233 28.72941589 58.73257446 C29.41389297 58.74412567 30.09837006 58.75567688 30.80358887 58.76757812 C34.40699301 58.8793744 35.93830294 59.0905825 39.02238464 61.14663696 C39.53068542 63.46572876 39.53068542 63.46572876 39.71769714 66.34585571 C39.79375183 67.39064087 39.86980652 68.43542603 39.94816589 69.51187134 C40.01390808 70.60821899 40.07965027 71.70456665 40.14738464 72.83413696 C40.29405379 74.98399792 40.44244824 77.13374197 40.59269714 79.28335571 C40.66150085 80.30268188 40.73030457 81.32200806 40.80119324 82.3722229 C41.06291073 85.65495753 41.54111351 88.88975906 42.02238464 92.14663696 C42.1062227 93.93682599 42.15289893 95.72949435 42.14738464 97.52163696 C42.15125183 98.80167603 42.15125183 98.80167603 42.15519714 100.10757446 C42.02238464 102.14663696 42.02238464 102.14663696 41.02238464 103.14663696 C38.90557147 103.24085437 36.78557706 103.26406457 34.66667175 103.26016235 C34.00328293 103.26030838 33.3398941 103.26045441 32.65640259 103.26060486 C30.45414509 103.25990577 28.2519712 103.25211361 26.04972839 103.24429321 C24.52658128 103.24242902 23.00343357 103.24100512 21.48028564 103.24000549 C17.46400813 103.23618042 13.44776657 103.22635024 9.4315033 103.21530151 C5.33615098 103.20508715 1.24079289 103.20050782 -2.85456848 103.19546509 C-10.89560064 103.18472796 -18.93660353 103.16765168 -26.97761536 103.14663696 C-29.71660042 96.42588275 -30.22615858 90.34190868 -30.54011536 83.14663696 C-30.58329895 82.27651978 -30.62648254 81.40640259 -30.67097473 80.50991821 C-30.99942456 73.36743791 -30.97761536 66.31681239 -30.97761536 59.14663696 C-21.40761536 59.14663696 -11.83761536 59.14663696 -1.97761536 59.14663696 C-1.97761536 55.51663696 -1.97761536 51.88663696 -1.97761536 48.14663696 C-2.63761536 48.14663696 -3.29761536 48.14663696 -3.97761536 48.14663696 C-5.11115032 35.46822926 -6.17408899 22.82108205 -6.16511536 10.08413696 C-6.16575989 9.19315308 -6.16640442 8.30216919 -6.16706848 7.38418579 C-6.10293662 0.04035937 -6.10293662 0.04035937 0 0 Z " fill="#9CA1A3" transform="translate(79.97761535644531,193.85336303710938)"/>
<path d="M0 0 C19.47 0 38.94 0 59 0 C59.66 7.59 60.32 15.18 61 23 C61.495 24.485 61.495 24.485 62 26 C62 28.31 62 30.62 62 33 C42.53 33 23.06 33 3 33 C1.04717723 21.28306341 0 11.87886544 0 0 Z " fill="#A3BBBB" transform="translate(54,258)"/>
<path d="M0 0 C0.71169846 0.00045319 1.42339691 0.00090637 2.15666199 0.00137329 C3.27619011 -0.00366463 3.27619011 -0.00366463 4.41833496 -0.00880432 C6.89834738 -0.01834326 9.37829249 -0.020259 11.85832214 -0.02133179 C13.57606535 -0.02454268 15.29380828 -0.02790662 17.0115509 -0.03141785 C20.61803318 -0.03741673 24.22449147 -0.03925701 27.83097839 -0.03866577 C32.4570965 -0.03856419 37.08306099 -0.05220927 41.70914268 -0.06943798 C45.25899464 -0.08054637 48.80880935 -0.08258533 52.35867691 -0.08205605 C54.06434788 -0.08323819 55.77001975 -0.08767305 57.47567368 -0.09538841 C59.86033175 -0.10516359 62.24465501 -0.10232 64.62931824 -0.09628296 C65.33696823 -0.10190247 66.04461823 -0.10752197 66.77371216 -0.11331177 C70.4230761 -0.08978279 71.89523466 0.06187031 75.02238464 2.14663696 C75.71769714 4.94741821 75.71769714 4.94741821 76.14738464 8.45913696 C76.30465027 9.72499634 76.46191589 10.99085571 76.62394714 12.29507446 C77.09052103 16.80528873 77.43552259 21.31473184 77.74504089 25.83804321 C78.03168248 29.25755624 78.47567792 32.62468281 78.95988464 36.02163696 C80.05423573 43.81276333 80.71177122 51.62397347 81.32487488 59.46646118 C81.44004456 60.89369507 81.44004456 60.89369507 81.55754089 62.34976196 C81.65627502 63.62835083 81.65627502 63.62835083 81.75700378 64.93276978 C81.96759733 67.31738781 81.96759733 67.31738781 83.02238464 70.14663696 C83.14067902 71.99808146 83.19753325 73.85395834 83.20988464 75.70913696 C83.22406433 76.67980103 83.23824402 77.65046509 83.25285339 78.65054321 C83.02238464 81.14663696 83.02238464 81.14663696 81.02238464 83.14663696 C78.39277838 83.33406234 75.87045129 83.40233049 73.24113464 83.37710571 C72.47184631 83.37664749 71.70255798 83.37618927 70.90995789 83.37571716 C69.28254149 83.37269449 67.655128 83.36480771 66.02775574 83.35244751 C63.53237188 83.33420995 61.03735939 83.33193769 58.54191589 83.33218384 C56.96248559 83.32726789 55.38305781 83.32143924 53.80363464 83.31460571 C52.68015625 83.31293648 52.68015625 83.31293648 51.53398132 83.31123352 C46.25452786 83.26270857 46.25452786 83.26270857 44.02238464 82.14663696 C44.02238464 80.82663696 44.02238464 79.50663696 44.02238464 78.14663696 C55.24238464 78.14663696 66.46238464 78.14663696 78.02238464 78.14663696 C77.69238464 73.52663696 77.36238464 68.90663696 77.02238464 64.14663696 C76.96538648 61.68887619 76.93257053 59.22990683 76.95988464 56.77163696 C76.96890808 55.69140259 76.97793152 54.61116821 76.98722839 53.49819946 C76.99882996 52.72218384 77.01043152 51.94616821 77.02238464 51.14663696 C76.36238464 51.14663696 75.70238464 51.14663696 75.02238464 51.14663696 C73.61044823 40.73360591 72.72209821 30.67334474 73.02238464 20.14663696 C72.36238464 20.14663696 71.70238464 20.14663696 71.02238464 20.14663696 C70.96179871 19.24300415 70.90121277 18.33937134 70.83879089 17.40835571 C70.75500183 16.22886353 70.67121277 15.04937134 70.58488464 13.83413696 C70.50367371 12.66237915 70.42246277 11.49062134 70.33879089 10.28335571 C70.13564754 7.12072738 70.13564754 7.12072738 69.02238464 4.14663696 C45.26238464 4.14663696 21.50238464 4.14663696 -2.97761536 4.14663696 C-2.64761536 13.05663696 -2.31761536 21.96663696 -1.97761536 31.14663696 C-7.24724578 23.24219133 -6.61062255 10.37676516 -5.97761536 1.14663696 C-4.3000622 -0.53091619 -2.2402542 0.01481504 0 0 Z " fill="#607E80" transform="translate(79.97761535644531,193.85336303710938)"/>
<path d="M0 0 C19.47 0 38.94 0 59 0 C58.67 0.66 58.34 1.32 58 2 C53.05 2 48.1 2 43 2 C42.67 2.99 42.34 3.98 42 5 C41.40574219 4.98839844 40.81148437 4.97679687 40.19921875 4.96484375 C28.94000824 4.77094136 28.94000824 4.77094136 18 7 C19.02967399 14.99112707 19.02967399 14.99112707 24 21 C25.109569 22.12044713 26.19126699 23.26889847 27.25 24.4375 C27.77078125 24.99308594 28.2915625 25.54867188 28.828125 26.12109375 C30 28 30 28 30 33 C21.09 33 12.18 33 3 33 C1.04717723 21.28306341 0 11.87886544 0 0 Z " fill="#A5BABA" transform="translate(54,258)"/>
<path d="M0 0 C23.76 0 47.52 0 72 0 C72 0.33 72 0.66 72 1 C48.57 1 25.14 1 1 1 C1.33 9.25 1.66 17.5 2 26 C2.66 26 3.32 26 4 26 C5.485 39.86 5.485 39.86 7 54 C10.44759766 54.09087891 10.44759766 54.09087891 13.96484375 54.18359375 C16.18224524 54.24534005 18.39959346 54.30874554 20.61694336 54.37231445 C22.16214289 54.41571985 23.70739214 54.45739071 25.25268555 54.49731445 C27.46939096 54.55488199 29.6858448 54.61861424 31.90234375 54.68359375 C32.94454323 54.70866249 32.94454323 54.70866249 34.00779724 54.73423767 C38.88612829 54.88612829 38.88612829 54.88612829 40 56 C40.22808396 57.5860925 40.3950067 59.18107628 40.53515625 60.77734375 C40.62216797 61.76669922 40.70917969 62.75605469 40.79882812 63.77539062 C40.88583984 64.81888672 40.97285156 65.86238281 41.0625 66.9375 C41.19881836 68.45053711 41.19881836 68.45053711 41.33789062 69.99414062 C41.8819223 76.34663078 42.11914592 82.62525196 42 89 C35.01986947 82.01986947 37.44663976 69.76481837 36 60 C5.805 59.505 5.805 59.505 -25 59 C-25 62.3 -25 65.6 -25 69 C-25.33 69 -25.66 69 -26 69 C-26.33 64.71 -26.66 60.42 -27 56 C-17.43 56 -7.86 56 2 56 C1.67 52.04 1.34 48.08 1 44 C0.34 44 -0.32 44 -1 44 C-1.3384865 39.83373537 -1.66985752 35.66693347 -2 31.5 C-2.09539062 30.32695312 -2.19078125 29.15390625 -2.2890625 27.9453125 C-2.7611905 21.94254224 -3.11923326 16.02127983 -3 10 C-2.67 10 -2.34 10 -2 10 C-1.34 14.62 -0.68 19.24 0 24 C0 16.08 0 8.16 0 0 Z " fill="#828387" transform="translate(77,198)"/>
<path d="M0 0 C2.25578285 2.81972857 2.56992744 5.41182483 2.8515625 8.953125 C1.93955109 14.46383804 -2.23122754 18.51300021 -6.609375 21.73828125 C-9.20703125 22.22265625 -9.20703125 22.22265625 -11.609375 21.73828125 C-13.41015625 20.27734375 -13.41015625 20.27734375 -14.921875 18.36328125 C-15.68951172 17.42355469 -15.68951172 17.42355469 -16.47265625 16.46484375 C-17.609375 14.73828125 -17.609375 14.73828125 -17.609375 12.73828125 C-18.24875 12.44953125 -18.888125 12.16078125 -19.546875 11.86328125 C-21.609375 10.73828125 -21.609375 10.73828125 -22.609375 8.73828125 C-22.8125 6.86328125 -22.8125 6.86328125 -22.859375 4.73828125 C-22.88515625 4.03703125 -22.9109375 3.33578125 -22.9375 2.61328125 C-22.82921875 1.99453125 -22.7209375 1.37578125 -22.609375 0.73828125 C-17.22791316 -2.84935998 -5.49714871 -4.30965785 0 0 Z " fill="#5B767A" transform="translate(94.609375,264.26171875)"/>
<path d="M0 0 C1.32 0 2.64 0 4 0 C4.45226289 7.5377149 3.56080116 11.90008281 -1.375 17.875 C-5.38635251 20.96374144 -9.92537859 20.68126384 -14.796875 20.4921875 C-20.36817828 19.63610919 -24.26039936 17.25503787 -27.6875 12.8125 C-28.120625 12.214375 -28.55375 11.61625 -29 11 C-31.58498512 9.73152315 -31.58498512 9.73152315 -34 9 C-34 8.34 -34 7.68 -34 7 C-37.16280328 6.88974978 -39.96966073 7.04572231 -43 8 C-46.52742429 11.51920186 -48.53497103 16.03969098 -49 21 C-50.65 21.33 -52.3 21.66 -54 22 C-53.39425587 11.24281984 -53.39425587 11.24281984 -50 7 C-49.401875 6.071875 -48.80375 5.14375 -48.1875 4.1875 C-42.98579319 0.61770121 -37.12500356 1.4565903 -31 2 C-30.34 2.33 -29.68 2.66 -29 3 C-29 3.66 -29 4.32 -29 5 C-28.41347656 5.26683594 -27.82695313 5.53367188 -27.22265625 5.80859375 C-24.30652669 7.37172119 -22.11743843 9.44313515 -19.68359375 11.66015625 C-16.69561419 14.0380611 -13.9775987 14.11561737 -10.3125 14.0625 C-9.50425781 14.05347656 -8.69601563 14.04445312 -7.86328125 14.03515625 C-7.24839844 14.02355469 -6.63351563 14.01195312 -6 14 C-5.67 13.34 -5.34 12.68 -5 12 C-4.34 12 -3.68 12 -3 12 C-2.95101562 11.38511719 -2.90203125 10.77023438 -2.8515625 10.13671875 C-2.77679688 9.32847656 -2.70203125 8.52023438 -2.625 7.6875 C-2.55539063 6.88699219 -2.48578125 6.08648437 -2.4140625 5.26171875 C-2 3 -2 3 0 0 Z " fill="#8B9698" transform="translate(143,221)"/>
<path d="M0 0 C4.45827926 -0.0578304 8.9164628 -0.09353855 13.375 -0.125 C15.28152344 -0.15013672 15.28152344 -0.15013672 17.2265625 -0.17578125 C18.43828125 -0.18222656 19.65 -0.18867188 20.8984375 -0.1953125 C22.01911621 -0.20578613 23.13979492 -0.21625977 24.29443359 -0.22705078 C27 0 27 0 29 2 C28.625 4.125 28.625 4.125 28 6 C26.35 6 24.7 6 23 6 C23.66 7.65 24.32 9.3 25 11 C23 13 23 13 20.87695312 13.15112305 C19.59208008 13.08211792 19.59208008 13.08211792 18.28125 13.01171875 C17.34925781 12.96466797 16.41726562 12.91761719 15.45703125 12.86914062 C14.48121094 12.80919922 13.50539062 12.74925781 12.5 12.6875 C11.03626953 12.61499023 11.03626953 12.61499023 9.54296875 12.54101562 C2.28946283 12.14473141 2.28946283 12.14473141 0 11 C0 7.37 0 3.74 0 0 Z " fill="#809DA1" transform="translate(125,257)"/>
<path d="M0 0 C2 2 2 2 4 18 C24.79 18.33 45.58 18.66 67 19 C67 20.32 67 21.64 67 23 C45.55 23 24.1 23 2 23 C-0.25 17.375 -0.25 17.375 -0.1953125 13.57421875 C-0.18886719 12.77822266 -0.18242188 11.98222656 -0.17578125 11.16210938 C-0.15902344 10.34548828 -0.14226563 9.52886719 -0.125 8.6875 C-0.11597656 7.85154297 -0.10695312 7.01558594 -0.09765625 6.15429688 C-0.07420989 4.10274031 -0.03834266 2.05133223 0 0 Z " fill="#848284" transform="translate(52,273)"/>
<path d="M0 0 C23.76 0 47.52 0 72 0 C72 0.33 72 0.66 72 1 C48.57 1 25.14 1 1 1 C1.33 9.25 1.66 17.5 2 26 C2.66 26 3.32 26 4 26 C4.82038591 32.401594 5.12754513 38.61302501 5.0625 45.0625 C5.05798828 45.92810547 5.05347656 46.79371094 5.04882812 47.68554688 C5.03719913 49.79039539 5.01927073 51.89520758 5 54 C4.01 54.495 4.01 54.495 3 55 C1.19769832 51.17010894 0.80377759 48.21878192 1 44 C0.34 44 -0.32 44 -1 44 C-1.3384865 39.83373537 -1.66985752 35.66693347 -2 31.5 C-2.09539062 30.32695312 -2.19078125 29.15390625 -2.2890625 27.9453125 C-2.7611905 21.94254224 -3.11923326 16.02127983 -3 10 C-2.67 10 -2.34 10 -2 10 C-1.34 14.62 -0.68 19.24 0 24 C0 16.08 0 8.16 0 0 Z " fill="#6D8B8D" transform="translate(77,198)"/>
<path d="M0 0 C24.42 0 48.84 0 74 0 C74 0.66 74 1.32 74 2 C38.855 2.495 38.855 2.495 3 3 C3.33 11.91 3.66 20.82 4 30 C1.76200701 26.64301051 1.43620451 24.58906362 0.875 20.625 C0.62363281 18.94277344 0.62363281 18.94277344 0.3671875 17.2265625 C-0.12991259 11.50462318 0 5.7434918 0 0 Z " fill="#4D6B6D" transform="translate(74,195)"/>
<path d="M0 0 C0.33 0 0.66 0 1 0 C1 4.62 1 9.24 1 14 C1.66 14.33 2.32 14.66 3 15 C3 12.03 3 9.06 3 6 C3.33 6 3.66 6 4 6 C4.02687279 7.81242052 4.04633715 9.62495233 4.0625 11.4375 C4.07410156 12.44683594 4.08570313 13.45617187 4.09765625 14.49609375 C4 17 4 17 3 18 C0.42978157 18.10094226 -2.11298032 18.13971237 -4.68359375 18.1328125 C-5.83964867 18.13424759 -5.83964867 18.13424759 -7.01905823 18.13571167 C-8.65243613 18.13639349 -10.28581673 18.13453909 -11.91918945 18.13037109 C-14.42340172 18.12503007 -16.92743403 18.13031224 -19.43164062 18.13671875 C-21.0156254 18.13605783 -22.59961006 18.13477637 -24.18359375 18.1328125 C-24.9357164 18.13483673 -25.68783905 18.13686096 -26.4627533 18.13894653 C-31.77008751 18.11495624 -31.77008751 18.11495624 -34 17 C-34 15.68 -34 14.36 -34 13 C-22.78 13 -11.56 13 0 13 C0 8.71 0 4.42 0 0 Z " fill="#638184" transform="translate(158,259)"/>
<path d="M0 0 C0.33 0 0.66 0 1 0 C1 1.98 1 3.96 1 6 C-8.57 6 -18.14 6 -28 6 C-27.67 8.31 -27.34 10.62 -27 13 C-26.67 11.68 -26.34 10.36 -26 9 C-5.87 9 14.26 9 35 9 C35 9.33 35 9.66 35 10 C15.53 10 -3.94 10 -24 10 C-23.67 16.93 -23.34 23.86 -23 31 C-23.66 29.68 -24.32 28.36 -25 27 C-25.33 29.64 -25.66 32.28 -26 35 C-26.33 35 -26.66 35 -27 35 C-27.34357475 32.43852756 -27.67485298 29.87632819 -28 27.3125 C-28.09539063 26.61060547 -28.19078125 25.90871094 -28.2890625 25.18554688 C-29.14415826 18.31424164 -29 12.10017111 -29 5 C-19.43 5 -9.86 5 0 5 C0 3.35 0 1.7 0 0 Z " fill="#929094" transform="translate(78,248)"/>
<path d="M0 0 C0.66 0 1.32 0 2 0 C2.13277344 1.25296875 2.26554688 2.5059375 2.40234375 3.796875 C2.58058291 5.44793246 2.7589764 7.09897327 2.9375 8.75 C3.02451172 9.575 3.11152344 10.4 3.20117188 11.25 C3.28818359 12.04921875 3.37519531 12.8484375 3.46484375 13.671875 C3.543396 14.4050293 3.62194824 15.13818359 3.70288086 15.89355469 C3.96338579 18.00672871 3.96338579 18.00672871 4.51586914 20.0612793 C5.54605513 24.18669882 5.470101 28.55368306 5.71875 32.78515625 C5.87584879 36.01478796 5.87584879 36.01478796 7 39 C7.14986411 40.9906444 7.24828038 42.98535391 7.31640625 44.98046875 C7.35830078 46.14384766 7.40019531 47.30722656 7.44335938 48.50585938 C7.48267578 49.72080078 7.52199219 50.93574219 7.5625 52.1875 C7.60568359 53.41404297 7.64886719 54.64058594 7.69335938 55.90429688 C7.7995309 58.93608381 7.90157952 61.96795315 8 65 C7.01 64.67 6.02 64.34 5 64 C5.01160156 63.00097656 5.02320313 62.00195312 5.03515625 60.97265625 C5.04417969 59.68230469 5.05320313 58.39195312 5.0625 57.0625 C5.07990234 55.13083984 5.07990234 55.13083984 5.09765625 53.16015625 C5.36532549 50.13701597 5.36532549 50.13701597 4 49 C3.92741054 46.81360547 3.91626217 44.62499611 3.9375 42.4375 C3.94652344 41.23996094 3.95554688 40.04242188 3.96484375 38.80859375 C3.97644531 37.88175781 3.98804688 36.95492187 4 36 C3.34 36 2.68 36 2 36 C0.26935323 23.93182919 -0.24077143 12.18570977 0 0 Z " fill="#4D6D6F" transform="translate(153,209)"/>
<path d="M0 0 C2.40893538 3.61340308 2.41810201 5.82346492 2.6875 10.125 C2.77386719 11.38570313 2.86023438 12.64640625 2.94921875 13.9453125 C2.96597656 14.95335937 2.98273438 15.96140625 3 17 C2 18 2 18 -1.59765625 18.09765625 C-3.08596867 18.0909822 -4.57426432 18.07902183 -6.0625 18.0625 C-6.82111328 18.05798828 -7.57972656 18.05347656 -8.36132812 18.04882812 C-10.24091871 18.0370068 -12.12046899 18.01907078 -14 18 C-14 17.67 -14 17.34 -14 17 C-10.92382812 16.70703125 -10.92382812 16.70703125 -7.84765625 16.4140625 C-7.23792969 16.27742188 -6.62820312 16.14078125 -6 16 C-4.75453595 13.50907189 -5.2232422 12.58919267 -6 10 C-4.35 9.67 -2.7 9.34 -1 9 C-1.33 7.02 -1.66 5.04 -2 3 C-10.91 3 -19.82 3 -29 3 C-25.20952006 -0.79047994 -18.63278499 0.36837955 -13.5 0.1875 C-12.23800781 0.12369141 -10.97601563 0.05988281 -9.67578125 -0.00585938 C-8.47308594 -0.05162109 -7.27039063 -0.09738281 -6.03125 -0.14453125 C-4.92330078 -0.18940674 -3.81535156 -0.23428223 -2.67382812 -0.28051758 C-1.3502832 -0.14166138 -1.3502832 -0.14166138 0 0 Z " fill="#A3C0C4" transform="translate(154,253)"/>
<path d="M0 0 C4.45827926 -0.0578304 8.9164628 -0.09353855 13.375 -0.125 C15.28152344 -0.15013672 15.28152344 -0.15013672 17.2265625 -0.17578125 C18.43828125 -0.18222656 19.65 -0.18867188 20.8984375 -0.1953125 C22.01911621 -0.20578613 23.13979492 -0.21625977 24.29443359 -0.22705078 C27 0 27 0 29 2 C29 2.99 29 3.98 29 5 C19.1 5 9.2 5 -1 5 C-0.67 3.35 -0.34 1.7 0 0 Z " fill="#527070" transform="translate(124,248)"/>
<path d="M0 0 C1.13072182 0.00539291 1.13072182 0.00539291 2.2842865 0.01089478 C3.46956436 0.01067574 3.46956436 0.01067574 4.67878723 0.01045227 C7.30309245 0.0111516 9.92732759 0.01894489 12.55162048 0.02676392 C14.36623089 0.02862803 16.18084179 0.03005196 17.99545288 0.03105164 C22.78111653 0.03487737 27.56675003 0.04470813 32.35240173 0.05575562 C37.23195488 0.06596854 42.11151287 0.070549 46.99107361 0.07559204 C56.57246709 0.08633035 66.15383816 0.10340744 75.73521423 0.12442017 C78.67074975 10.26489287 78.8702773 19.57449391 78.73521423 30.12442017 C78.40521423 30.12442017 78.07521423 30.12442017 77.73521423 30.12442017 C77.00279236 23.53262329 77.00279236 23.53262329 76.27037048 16.94082642 C76.18029724 16.1520813 76.090224 15.36333618 75.99742126 14.5506897 C75.81762343 12.88697378 75.6581679 11.22097039 75.51597595 9.55361938 C75.40600281 8.33376343 75.40600281 8.33376343 75.29380798 7.08926392 C75.23378601 6.3518396 75.17376404 5.61441528 75.11192322 4.85464478 C74.98760925 4.28367065 74.86329529 3.71269653 74.73521423 3.12442017 C71.75277868 1.63320239 68.70905671 1.99440544 65.43980408 2.01089478 C64.68848709 2.01074875 63.9371701 2.01060272 63.16308594 2.01045227 C60.67407873 2.0111502 58.1851459 2.01893703 55.69615173 2.02676392 C53.97265158 2.02862852 52.2491509 2.03005222 50.52565002 2.03105164 C45.98495526 2.03487348 41.44429238 2.04470094 36.90361023 2.05575562 C32.27196179 2.06597688 27.6403082 2.07055079 23.00865173 2.07559204 C13.91749188 2.08632349 4.8263557 2.10339594 -4.26478577 2.12442017 C-4.59478577 5.42442017 -4.92478577 8.72442017 -5.26478577 12.12442017 C-5.59478577 12.12442017 -5.92478577 12.12442017 -6.26478577 12.12442017 C-6.29165856 10.31199965 -6.31112292 8.49946783 -6.32728577 6.68692017 C-6.33888733 5.67758423 -6.35048889 4.66824829 -6.36244202 3.62832642 C-6.18494204 -0.92277306 -4.00634754 0.00806445 0 0 Z " fill="#82A0A1" transform="translate(79.26478576660156,192.87557983398438)"/>
<path d="M0 0 C0.33 0 0.66 0 1 0 C1.17435357 1.87430083 1.33886064 3.74951689 1.5 5.625 C1.5928125 6.66914063 1.685625 7.71328125 1.78125 8.7890625 C2.096189 14.8516382 2 20.92924958 2 27 C-9.22 27 -20.44 27 -32 27 C-33.43088528 24.13822943 -32.59991697 22.06624227 -32 19 C-31.67 20.32 -31.34 21.64 -31 23 C-24.4 23.33 -17.8 23.66 -11 24 C-11 24.33 -11 24.66 -11 25 C-7.37 25 -3.74 25 0 25 C0 16.75 0 8.5 0 0 Z " fill="#89A7AA" transform="translate(156,245)"/>
<path d="M0 0 C1.32 0 2.64 0 4 0 C4 0.66 4 1.32 4 2 C4.9075 1.67 5.815 1.34 6.75 1 C10 0 10 0 14 0 C14 2.64 14 5.28 14 8 C13.01 8.33 12.02 8.66 11 9 C11 9.66 11 10.32 11 11 C8.875 11.4375 8.875 11.4375 6 11 C3.59341984 8.95412506 1.60890285 6.72020688 0 4 C0 2.68 0 1.36 0 0 Z " fill="#A3BEC1" transform="translate(77,268)"/>
<path d="M0 0 C1.258125 0.01417969 2.51625 0.02835938 3.8125 0.04296875 C5.070625 0.04941406 6.32875 0.05585938 7.625 0.0625 C10.8125 0.23046875 10.8125 0.23046875 12.8125 1.23046875 C12.8125 1.89046875 12.8125 2.55046875 12.8125 3.23046875 C13.70775391 3.63265625 13.70775391 3.63265625 14.62109375 4.04296875 C16.82087159 5.23500523 18.1385796 6.45407959 19.875 8.23046875 C24.2511831 12.14801257 29.12838342 12.63430462 34.8125 13.23046875 C34.8125 13.56046875 34.8125 13.89046875 34.8125 14.23046875 C30.25262426 14.83020189 26.39204213 15.1514557 22.3203125 12.77734375 C20.08948495 10.98967723 17.95197835 9.12567595 15.8125 7.23046875 C14.16996199 6.19131205 12.51671699 5.16503936 10.8125 4.23046875 C11.1425 5.55046875 11.4725 6.87046875 11.8125 8.23046875 C10.4925 7.90046875 9.1725 7.57046875 7.8125 7.23046875 C7.8125 6.57046875 7.8125 5.91046875 7.8125 5.23046875 C6.37413249 5.34505568 4.93679034 5.47255991 3.5 5.60546875 C2.29923828 5.70988281 2.29923828 5.70988281 1.07421875 5.81640625 C-1.45974441 6.12611301 -1.45974441 6.12611301 -4.1875 8.23046875 C-3.6875 6.29296875 -3.6875 6.29296875 -2.1875 4.23046875 C0.50908452 3.54256453 3.0142019 3.41100411 5.8125 3.23046875 C5.8125 2.57046875 5.8125 1.91046875 5.8125 1.23046875 C4.554375 1.39546875 3.29625 1.56046875 2 1.73046875 C-0.45206585 2.05205116 -2.70400694 2.23046875 -5.1875 2.23046875 C-3.1875 0.23046875 -3.1875 0.23046875 0 0 Z " fill="#8D9698" transform="translate(101.1875,222.76953125)"/>
<path d="M0 0 C0.66 0.66 1.32 1.32 2 2 C2.66 1.01 3.32 0.02 4 -1 C4.82973701 2.40261898 5.30747559 5.49874568 5 9 C3.08145277 12.14400672 0.73907359 14.55464253 -2 17 C-2 15.33333333 -2 13.66666667 -2 12 C-2.66 12 -3.32 12 -4 12 C-4 11.34 -4 10.68 -4 10 C-3.34 9.67 -2.68 9.34 -2 9 C-1.53476937 7.10466658 -1.53476937 7.10466658 -1.375 4.9375 C-1.25125 3.638125 -1.1275 2.33875 -1 1 C-1.9075 1.33 -2.815 1.66 -3.75 2 C-7 3 -7 3 -11 3 C-11 2.34 -11 1.68 -11 1 C-6.91543861 -0.6148266 -4.23493122 -1.41164374 0 0 Z " fill="#6A8689" transform="translate(92,267)"/>
<path d="M0 0 C3.54985264 0.57733867 5.07913698 1.83263699 7.5625 4.375 C12.16408189 8.6112389 16.96152844 9.83448619 23 11 C22.67 11.66 22.34 12.32 22 13 C16.11145046 13.31545801 11.17433692 13.05562695 6 10 C3.65708636 7.89137773 1.62517158 5.7086193 0 3 C0 2.01 0 1.02 0 0 Z " fill="#878F92" transform="translate(112,227)"/>
<path d="M0 0 C0.66 0 1.32 0 2 0 C3.25835166 13.35994639 4.35541223 26.57331559 4 40 C3.34 40 2.68 40 2 40 C1.67 39.34 1.34 38.68 1 38 C-0.65 38 -2.3 38 -4 38 C-2.02 37.505 -2.02 37.505 0 37 C0 34.69 0 32.38 0 30 C0.33 30 0.66 30 1 30 C0.67 20.1 0.34 10.2 0 0 Z " fill="#8D9395" transform="translate(117,255)"/>
<path d="M0 0 C8.91 0 17.82 0 27 0 C27 0.99 27 1.98 27 3 C18.09 3 9.18 3 0 3 C0 2.01 0 1.02 0 0 Z " fill="#557275" transform="translate(126,258)"/>
<path d="M0 0 C4.45827926 -0.0578304 8.9164628 -0.09353855 13.375 -0.125 C15.28152344 -0.15013672 15.28152344 -0.15013672 17.2265625 -0.17578125 C18.43828125 -0.18222656 19.65 -0.18867188 20.8984375 -0.1953125 C22.01911621 -0.20578613 23.13979492 -0.21625977 24.29443359 -0.22705078 C27 0 27 0 29 2 C29 2.99 29 3.98 29 5 C19.1 5 9.2 5 -1 5 C-0.67 3.35 -0.34 1.7 0 0 Z M3 1 C2.67 1.99 2.34 2.98 2 4 C10.25 4 18.5 4 27 4 C26.67 3.01 26.34 2.02 26 1 C18.41 1 10.82 1 3 1 Z " fill="#739191" transform="translate(124,248)"/>
<path d="M0 0 C0.99 0 1.98 0 3 0 C3 0.66 3 1.32 3 2 C4.32 2.33 5.64 2.66 7 3 C5.68 3 4.36 3 3 3 C3.33 11.91 3.66 20.82 4 30 C-1.40393442 21.89409838 -0.28161745 9.41853929 0 0 Z " fill="#557373" transform="translate(74,195)"/>
<path d="M0 0 C6.93 0 13.86 0 21 0 C21 0.99 21 1.98 21 3 C14.07 3 7.14 3 0 3 C0 2.01 0 1.02 0 0 Z " fill="#516F73" transform="translate(126,265)"/>
<path d="M0 0 C2.15478516 -0.34057617 2.15478516 -0.34057617 4.7890625 -0.29296875 C5.73007813 -0.28330078 6.67109375 -0.27363281 7.640625 -0.26367188 C9.11789063 -0.2259668 9.11789063 -0.2259668 10.625 -0.1875 C12.11386719 -0.16719727 12.11386719 -0.16719727 13.6328125 -0.14648438 C16.08908072 -0.11105743 18.54427285 -0.06166196 21 0 C20.67 1.32 20.34 2.64 20 4 C12.74 3.67 5.48 3.34 -2 3 C-1.34 2.01 -0.68 1.02 0 0 Z " fill="#A7BDBD" transform="translate(76,259)"/>
<path d="M0 0 C3.16348197 2.90904642 3.60523745 4.65761197 4 9 C4.06979824 12.33535855 4.0593256 15.66458317 4 19 C3.34 19.33 2.68 19.66 2 20 C0.88176185 17.76352369 0.80603939 16.35108471 0.68359375 13.8671875 C0.62075195 12.65869141 0.62075195 12.65869141 0.55664062 11.42578125 C0.51732422 10.58402344 0.47800781 9.74226562 0.4375 8.875 C0.39431641 8.02550781 0.35113281 7.17601562 0.30664062 6.30078125 C0.20045764 4.20071777 0.09971503 2.10038052 0 0 Z " fill="#597676" transform="translate(78,233)"/>
<path d="M0 0 C2.64590014 -0.02684679 5.29153096 -0.04676357 7.9375 -0.0625 C8.69224609 -0.07087891 9.44699219 -0.07925781 10.22460938 -0.08789062 C12.14994313 -0.09652441 14.07535581 -0.05224333 16 0 C17 1 17 1 17.0625 3.5625 C17.041875 4.366875 17.02125 5.17125 17 6 C16.44441406 5.49339844 15.88882813 4.98679687 15.31640625 4.46484375 C11.81563963 2.25103686 9.24504114 3.30885668 5.33984375 4.06640625 C4.56769531 4.04449219 3.79554687 4.02257812 3 4 C1.19140625 2.02734375 1.19140625 2.02734375 0 0 Z " fill="#526D70" transform="translate(78,264)"/>
<path d="M0 0 C-2 2 -2 2 -4.6015625 2.1953125 C-5.59929687 2.17210937 -6.59703125 2.14890625 -7.625 2.125 C-9.12933594 2.09792969 -9.12933594 2.09792969 -10.6640625 2.0703125 C-11.43492188 2.04710937 -12.20578125 2.02390625 -13 2 C-12.67 2.99 -12.34 3.98 -12 5 C-13.32 5 -14.64 5 -16 5 C-16.33 6.32 -16.66 7.64 -17 9 C-17 6.69 -17 4.38 -17 2 C-17.66 1.67 -18.32 1.34 -19 1 C-15.22837079 -2.77162921 -4.86235705 -0.97247141 0 0 Z " fill="#627F80" transform="translate(93,263)"/>
<path d="M0 0 C0 0.66 0 1.32 0 2 C-0.92232422 2.25523437 -0.92232422 2.25523437 -1.86328125 2.515625 C-7.96545766 4.27858113 -7.96545766 4.27858113 -12 9 C-12.66 9 -13.32 9 -14 9 C-13.67031735 6.03285617 -12.76034171 4.68045561 -10.9375 2.25 C-6.96041417 -0.79627851 -4.89873187 -0.41514677 0 0 Z " fill="#7D8487" transform="translate(107,224)"/>
<path d="M0 0 C4.24846075 0.47205119 6.26819288 2.88877522 9 6 C9 6.66 9 7.32 9 8 C5.12793601 7.42636089 2.81534937 5.65894107 0 3 C0 2.01 0 1.02 0 0 Z " fill="#7A8184" transform="translate(112,227)"/>
<path d="M0 0 C0.33 0 0.66 0 1 0 C2.34495828 7.09705662 3.24091535 13.7725395 3 21 C2.67 21 2.34 21 2 21 C2 19.02 2 17.04 2 15 C1.34 15 0.68 15 0 15 C0 10.05 0 5.1 0 0 Z " fill="#6D8C8C" transform="translate(76,227)"/>
<path d="M0 0 C2.8203125 -0.29296875 2.8203125 -0.29296875 6.125 -0.1875 C7.76855469 -0.14689453 7.76855469 -0.14689453 9.4453125 -0.10546875 C10.28835937 -0.07066406 11.13140625 -0.03585937 12 0 C11.67 0.99 11.34 1.98 11 3 C6.71 3 2.42 3 -2 3 C-1.34 2.01 -0.68 1.02 0 0 Z " fill="#B1C2C3" transform="translate(76,259)"/>
<path d="M0 0 C2.125 0.9375 2.125 0.9375 4 2 C3.34 3.32 2.68 4.64 2 6 C0.68 5.67 -0.64 5.34 -2 5 C-2 3.68 -2 2.36 -2 1 C-1.34 0.67 -0.68 0.34 0 0 Z " fill="#E41B1B" transform="translate(313,0)"/>
<path d="M0 0 C2.31 0 4.62 0 7 0 C6.35546875 0.22429687 5.7109375 0.44859375 5.046875 0.6796875 C2.75611148 1.82889456 2.75611148 1.82889456 2.390625 4.3828125 C2.34421875 5.28773438 2.2978125 6.19265625 2.25 7.125 C2.19328125 8.03507812 2.1365625 8.94515625 2.078125 9.8828125 C2.03945313 10.93082031 2.03945313 10.93082031 2 12 C1.67 12 1.34 12 1 12 C0.67 8.04 0.34 4.08 0 0 Z " fill="#7D757A" transform="translate(50,255)"/>
<path d="M0 0 C2.64 0.33 5.28 0.66 8 1 C8 1.99 8 2.98 8 4 C5.6875 4.25 5.6875 4.25 3 4 C1.1875 2 1.1875 2 0 0 Z " fill="#4B686A" transform="translate(78,264)"/>
<path d="M0 0 C0.99 0 1.98 0 3 0 C3 1.98 3 3.96 3 6 C2.01 6.33 1.02 6.66 0 7 C0 4.69 0 2.38 0 0 Z " fill="#758586" transform="translate(143,223)"/>
<path d="M0 0 C2.64 0.33 5.28 0.66 8 1 C7.67 1.66 7.34 2.32 7 3 C5.02 3 3.04 3 1 3 C0.67 2.01 0.34 1.02 0 0 Z " fill="#7A8083" transform="translate(127,237)"/>
<path d="M0 0 C0.0825 0.61875 0.165 1.2375 0.25 1.875 C0.81258459 4.18437567 0.81258459 4.18437567 3.0625 5.25 C3.701875 5.4975 4.34125 5.745 5 6 C3.35 6.66 1.7 7.32 0 8 C-1.43088528 5.13822943 -0.59991697 3.06624227 0 0 Z " fill="#96B2B5" transform="translate(124,264)"/>
</svg>
